<?xml version="1.0" encoding="UTF-8" standalone="no"?>
<!DOCTYPE svg  PUBLIC '-//W3C//DTD SVG 1.1//EN'  'http://www.w3.org/Graphics/SVG/1.1/DTD/svg11.dtd'>
<svg xmlns="http://www.w3.org/2000/svg" version="1.1">
<defs>
<font id="BaronNeueBlack" horiz-adv-x="559">
<font-face units-per-em="1000" underline-position="-150" bbox="-48.3333 -234 995.6 954.556" descent="-250" cap-height="700" font-weight="900" x-height="687" font-family="Baron Neue Black" unicode-range="U+0020-00FE" panose-1="2 11 0 0 0 0 0 0 0 0" ascent="750" underline-thickness="50"/>
<missing-glyph/>
<glyph unicode=" " horiz-adv-x="345" glyph-name="space"/>
<glyph unicode="!" horiz-adv-x="276" glyph-name="exclam" d="M79 700h111q9 0 15 -5.5t6 -12.5v-471q0 -7 -6 -12.5t-15 -5.5h-111q-9 0 -15.5 5.5t-6.5 12.5v471q0 7 6.5 12.5t15.5 5.5zM133 154q36 0 61 -24t25 -57t-25 -57t-61 -24q-34 0 -58.5 24t-24.5 57q0 32 24.5 56.5t58.5 24.5z"/>
<glyph unicode='&quot;' horiz-adv-x="318" glyph-name="quotedbl" d="M12 471v211q0 7 6 12.5t15 5.5h82q9 0 15 -5.5t6 -12.5v-211q0 -7 -6 -12.5t-15 -5.5h-82q-9 0 -15 5.5t-6 12.5zM175 471v211q0 7 6 12.5t15 5.5h80q9 0 15.5 -5.5t6.5 -12.5v-211q0 -7 -6.5 -12.5t-15.5 -5.5h-80q-9 0 -15 5.5t-6 12.5z"/>
<glyph unicode="#" horiz-adv-x="654" glyph-name="numbersign" d="M575 404h-65q-9 -24 -14 -43q-27 -91 -27 -92h58q11 0 18 -7t3 -16l1 1q-3 -11 -13 -44.5t-15 -51.5q-4 -13 -21 -13h-66l-37 -126q-4 -13 -19 -13h-101q-11 0 -17.5 6.5t-4.5 14.5l33 118h-66q-5 -19 -11 -40t-13.5 -46.5t-11.5 -39.5q-4 -13 -20 -13h-100 q-11 0 -17.5 7.5t-2.5 15.5l-1 -1l31 117h-65q-10 0 -16.5 7.5t-2.5 15.5l-1 -1l27 97q5 12 21 12h74q2 7 29 99l11 36h-67q-12 0 -18 7.5t-2 16.5l-1 -1l26 94q4 13 21 13h75q7 25 22 76.5t22 76.5q4 13 21 13h100q11 0 18 -7.5t3 -15.5l1 1l-42 -144h67q7 25 22 76.5 t22 76.5q4 13 21 13h100q11 0 18 -7.5t3 -15.5l1 1l-42 -144h57q11 0 18 -7.5t3 -16.5l1 1l-28 -94q-4 -13 -20 -13zM331 257l47 160h-86l-47 -160h86z"/>
<glyph unicode="$" horiz-adv-x="543" glyph-name="dollar" d="M335 766v-68q69 -20 111.5 -72.5t43.5 -124.5q0 -19 -22 -19h-108q-9 0 -15.5 5.5t-6.5 13.5q-1 29 -22 45.5t-51 16.5q-33 0 -54 -19.5t-21 -56.5q0 -31 22 -48.5t53 -17.5q56 0 106 -23q58 -27 89.5 -79t31.5 -116q0 -79 -43.5 -132t-113.5 -71v-63q0 -6 -6.5 -11.5 t-14.5 -5.5h-93q-8 0 -14.5 5.5t-6.5 11.5v62q-73 17 -117 69.5t-45 132.5q0 17 21 17h110q8 0 14.5 -5t6.5 -12q1 -31 22.5 -48t52.5 -17t53 18.5t22 48.5q0 32 -24 53t-52 23q-56 0 -107 23q-119 56 -119 185q0 80 46 136t116 75v68q0 7 6 12.5t15 5.5h93q9 0 15 -5.5 t6 -12.5z"/>
<glyph unicode="%" horiz-adv-x="664" glyph-name="percent" d="M165 402q-65 0 -112 45.5t-47 107.5q0 64 47 109.5t112 45.5t111.5 -45.5t46.5 -109.5q0 -62 -47 -107.5t-111 -45.5zM165 602q-17 0 -29.5 -14t-12.5 -33t12.5 -32t29.5 -13t29.5 13t12.5 32t-12.5 33t-29.5 14zM479 -9q-67 0 -113.5 45.5t-46.5 110.5t46.5 110 t113.5 45t113 -45t46 -110t-46 -110.5t-113 -45.5zM479 192q-17 0 -29.5 -13t-12.5 -32t12.5 -32.5t29.5 -13.5t30 13.5t13 32.5t-13 32t-30 13zM113 2h-105q-13 0 -18 9t2 19q84 108 258 332t258 331q7 7 17 7h105q13 0 18 -9.5t-2 -18.5q-84 -107 -258 -331t-258 -332 q-7 -7 -17 -7z"/>
<glyph unicode="&amp;" horiz-adv-x="653" glyph-name="ampersand" d="M621 84l-81 -80q-13 -10 -26 0l-64 63q-72 -75 -179 -75q-134 0 -205 97q-40 63 -40 131q0 96 74 173q-52 49 -52 128q0 75 55.5 129.5t131.5 54.5q78 0 133 -54.5t55 -129.5q0 -87 -74 -147q11 -11 28 -30t31 -33v90q0 6 6 11.5t15 5.5h168q9 0 15 -5.5t6 -11.5v-91 q0 -7 -6 -12t-15 -5h-63v-49q0 -19 -6 -43l93 -92q5 -5 5 -13t-5 -12zM235 579q-21 0 -36.5 -17t-15.5 -41t15.5 -41t36.5 -17q22 0 37.5 17t15.5 41t-15.5 41t-37.5 17zM349 171l-138 134q-35 -30 -35 -76q0 -37 27.5 -63.5t72.5 -26.5q41 0 73 32z"/>
<glyph unicode="&apos;" horiz-adv-x="166" glyph-name="quotesingle" d="M10 471v211q0 7 6 12.5t15 5.5h101q9 0 15.5 -5.5t6.5 -12.5v-211q0 -7 -6.5 -12.5t-15.5 -5.5h-101q-9 0 -15 5.5t-6 12.5z"/>
<glyph unicode="(" horiz-adv-x="311" glyph-name="parenleft" d="M144 0l-15 7q-88 165 -88 345q0 175 88 338v-1q4 10 19 10h129q12 0 17.5 -8.5t-1.5 -17.5q-99 -151 -99 -320q0 -178 98 -327l-1 1q8 -10 3 -18.5t-18 -8.5h-132z"/>
<glyph unicode=")" horiz-adv-x="308" glyph-name="parenright" d="M158 699l16 -7q44 -86 65 -169v1q22 -83 22 -176q0 -177 -87 -339v1q-6 -10 -20 -10h-128q-14 0 -19.5 8.5t3.5 18.5h-1q100 151 100 319q0 66 -20 141q-26 102 -79 186q-8 9 -2.5 17.5t19.5 8.5h131z"/>
<glyph unicode="*" horiz-adv-x="383" glyph-name="asterisk" d="M351 562v-49q0 -6 -6.5 -11.5t-15.5 -5.5h-42l37 -36q6 -5 6 -14t-6 -13l-34 -33q-13 -11 -27 0l-32 31v-38q0 -7 -6 -12.5t-15 -5.5h-49q-9 0 -14.5 5.5t-5.5 12.5v38l-33 -31q-14 -11 -28 0l-34 33q-6 4 -6 13t6 14l37 36h-42q-9 0 -15.5 5.5t-6.5 11.5v49q0 7 6 12 t16 5h43l-38 37q-7 4 -6.5 13t6.5 14l34 34q14 9 28 0l33 -32v37q0 7 5.5 12.5t14.5 5.5h49q9 0 15 -5.5t6 -12.5v-37l32 32q14 9 27 0l34 -34q7 -5 7 -14t-7 -13l-37 -37h42q10 0 16 -5t6 -12z"/>
<glyph unicode="+" horiz-adv-x="467" glyph-name="plus" d="M432 398v-97q0 -6 -6.5 -11.5t-15.5 -5.5h-123v-128q0 -7 -6 -12.5t-15 -5.5h-97q-9 0 -15 5.5t-6 12.5v128h-117q-9 0 -15 5.5t-6 11.5v97q0 6 6 11.5t15 5.5h117v127q0 6 6 11.5t15 5.5h97q9 0 15 -5.5t6 -11.5v-127h123q9 0 15.5 -5.5t6.5 -11.5z"/>
<glyph unicode="," horiz-adv-x="186" glyph-name="comma" d="M80 145q45 0 66.5 -23.5t21.5 -61.5q0 -40 -23 -84t-54 -64q-11 -6 -21.5 -0.5t-10.5 16.5v66q-26 6 -42.5 26.5t-16.5 48.5q0 31 23.5 53.5t56.5 22.5z"/>
<glyph unicode="-" horiz-adv-x="443" glyph-name="hyphen" d="M400 402v-101q0 -17 -21 -17h-334q-9 0 -15.5 5.5t-6.5 11.5v101q0 7 6.5 12.5t15.5 5.5h334q21 0 21 -18z"/>
<glyph unicode="." horiz-adv-x="180" glyph-name="period" d="M86 149q34 0 57.5 -23t23.5 -55t-23.5 -54.5t-57.5 -22.5q-33 0 -56.5 22.5t-23.5 54.5t23.5 55t56.5 23z"/>
<glyph unicode="/" horiz-adv-x="452" glyph-name="slash" d="M314 700h114q11 0 16.5 -7.5t1.5 -16.5q-48 -104 -155 -333t-156 -333q-2 -3 -8 -7t-11 -4h-111q-11 0 -16.5 8t-1.5 16q48 104 154 333t154 333q1 4 7.5 7.5t11.5 3.5z"/>
<glyph unicode="0" horiz-adv-x="565" glyph-name="zero" d="M490 196q0 -97 -64 -151.5t-151 -54.5q-88 0 -151.5 54.5t-63.5 151.5v308q0 97 64 151.5t151 54.5t151 -55t64 -151v-308zM336 511q0 30 -18.5 47.5t-42.5 17.5q-25 0 -43 -17t-18 -48v-319q0 -31 18.5 -48.5t42.5 -17.5q25 0 43 17.5t18 48.5v319z"/>
<glyph unicode="1" horiz-adv-x="332" glyph-name="one" d="M266 682v-665q0 -7 -5.5 -12t-14.5 -5h-112q-20 0 -20 17v514q-17 -5 -49 -19h1l-24 -9q-19 -3 -26 10l-37 80q-6 18 11 22h-2q12 7 69.5 38t87.5 47h101q20 0 20 -18z"/>
<glyph unicode="2" horiz-adv-x="490" glyph-name="two" d="M450 128v-111q0 -6 -6.5 -11.5t-15.5 -5.5h-388q-9 0 -15 5.5t-6 11.5v105l242 335q21 28 21 55q0 22 -14 36.5t-34 14.5q-24 0 -43 -16t-19 -47q0 -6 -6 -11.5t-15 -5.5h-104q-9 0 -15 5.5t-6 11.5q0 92 53 150.5t155 58.5q83 0 145 -54.5t62 -135.5q0 -66 -51 -138 l-178 -235h216q9 0 15.5 -5.5t6.5 -12.5z"/>
<glyph unicode="3" horiz-adv-x="493" glyph-name="three" d="M120 342l127 216h-191q-9 0 -15.5 5.5t-6.5 12.5v106q0 7 6.5 12.5t15.5 5.5h391q13 0 19 -8.5t-1 -18.5v1l-137 -242q67 -23 101.5 -80t34.5 -140q0 -110 -67 -166t-164 -56q-92 0 -156.5 58.5t-64.5 152.5q0 7 6.5 12.5t15.5 5.5h109q9 0 15 -5.5t6 -12.5 q0 -29 20.5 -47.5t48.5 -18.5q36 0 56.5 25.5t20.5 59.5q0 41 -22 67t-59 29h-90q-14 0 -20 8.5t1 18.5v-1z"/>
<glyph unicode="4" horiz-adv-x="515" glyph-name="four" d="M443 682v-665q0 -6 -6.5 -11.5t-15.5 -5.5h-111q-8 0 -14 5.5t-6 11.5v184h-254q-9 0 -15 5.5t-6 12.5v110l276 360q11 11 19 11h111q9 0 15.5 -5.5t6.5 -12.5zM291 476l-114 -143h114v143z"/>
<glyph unicode="5" horiz-adv-x="501" glyph-name="five" d="M241 -7q-94 0 -154.5 55.5t-60.5 155.5q0 7 6 12.5t15 5.5h110q9 0 15 -5.5t6 -12.5q0 -32 18 -49t45 -17q33 0 52.5 24.5t19.5 57.5q0 41 -19 68t-54 29h-188q-9 0 -15 5.5t-6 11.5v348q0 7 6 12.5t15 5.5h357q9 0 15 -5.5t6 -12.5v-103q0 -6 -6 -11.5t-15 -5.5h-225 v-112h57q113 0 168.5 -63t55.5 -174q0 -100 -66 -160t-158 -60z"/>
<glyph unicode="6" horiz-adv-x="472" glyph-name="six" d="M225 -8q-94 0 -152.5 62.5t-58.5 151.5q0 39 10 72l144 410q6 12 19 12h119q9 0 15 -7t3 -16l-93 -264h19q85 0 138 -63t53 -147q0 -87 -63.5 -149t-152.5 -62zM226 276q-28 0 -48 -21.5t-20 -52.5q0 -30 20 -51.5t48 -21.5q29 0 49.5 21.5t20.5 51.5q0 31 -20.5 52.5 t-49.5 21.5z"/>
<glyph unicode="7" horiz-adv-x="436" glyph-name="seven" d="M33 24l201 534h-211q-9 0 -15.5 5.5t-6.5 12.5v106q0 7 6.5 12.5t15.5 5.5h397q11 0 17 -7.5t3 -16.5l-251 -665v1q-3 -12 -19 -12h-118q-10 0 -16.5 8t-2.5 16z"/>
<glyph unicode="8" horiz-adv-x="487" glyph-name="eight" d="M452 493q0 -87 -67 -143q67 -62 67 -143q0 -103 -64.5 -160t-152.5 -57q-87 0 -151 57t-64 160q0 37 18 76.5t45 67.5q-63 63 -63 142q0 101 64 158.5t151 57.5q88 0 152.5 -57.5t64.5 -158.5zM168 493q0 -30 19.5 -51t47.5 -21t48 21t20 51q0 36 -20.5 56.5t-47.5 20.5 t-47 -20.5t-20 -56.5zM171 207q0 -35 19 -55t45 -20t45.5 20t19.5 55q0 29 -19 51t-46 22q-26 0 -45 -22t-19 -51z"/>
<glyph unicode="9" horiz-adv-x="486" glyph-name="nine" d="M230 708q94 0 153 -62.5t59 -151.5q0 -36 -12 -73l-143 -409q-3 -12 -19 -12h-118q-11 0 -16.5 7t-2.5 16l93 264h-19q-84 0 -137 63t-53 147q0 87 63 149t152 62zM229 426q27 0 47 21t20 51q0 29 -20 50t-47 21q-28 0 -47.5 -21t-19.5 -50q0 -30 19.5 -51t47.5 -21z"/>
<glyph unicode=":" horiz-adv-x="180" glyph-name="colon" d="M86 149q34 0 57.5 -23t23.5 -55t-23.5 -54.5t-57.5 -22.5q-33 0 -56.5 22.5t-23.5 54.5t23.5 55t56.5 23zM86 434q34 0 57.5 -23t23.5 -55t-23.5 -54.5t-57.5 -22.5q-33 0 -56.5 22.5t-23.5 54.5t23.5 55t56.5 23z"/>
<glyph unicode=";" horiz-adv-x="181" glyph-name="semicolon" d="M86 434q34 0 57.5 -23t23.5 -55t-23.5 -54.5t-57.5 -22.5q-33 0 -56.5 22.5t-23.5 54.5t23.5 55t56.5 23zM80 145q45 0 66.5 -23.5t21.5 -61.5q0 -40 -23 -84t-54 -64q-11 -6 -21.5 -0.5t-10.5 16.5v66q-26 6 -42.5 26.5t-16.5 48.5q0 31 23.5 53.5t56.5 22.5z"/>
<glyph unicode="&lt;" horiz-adv-x="349" glyph-name="less" d="M250 575l60 -64q17 -12 0 -25l2 1l-137 -145l137 -142l-2 1q16 -13 0 -26l2 1l-64 -67q-14 -8 -30 0l-209 221q-5 5 -5.5 12.5t5.5 12.5l207 220q18 11 34 0z"/>
<glyph unicode="=" horiz-adv-x="427" glyph-name="equal" d="M394 425v-95q0 -6 -5.5 -11.5t-15.5 -5.5h-332q-9 0 -15.5 5.5t-6.5 11.5v95q0 7 6 12t16 5h332q21 0 21 -17zM394 257v-97q0 -5 -5.5 -10.5t-15.5 -5.5h-332q-9 0 -15.5 5.5t-6.5 10.5v97q0 6 6.5 11.5t15.5 5.5h332q21 0 21 -17z"/>
<glyph unicode="&gt;" horiz-adv-x="346" glyph-name="greater" d="M25 510l66 67q14 10 31 -2l207 -220q10 -18 0 -25l-209 -221q-16 -7 -31 0l-64 67l2 -1q-16 13 0 26l-2 -1l137 142l-137 145l2 -1q-17 13 0 25z"/>
<glyph unicode="?" horiz-adv-x="490" glyph-name="question" d="M227 710q98 0 160 -57t62 -161q0 -62 -45 -114t-110 -73v-104q0 -6 -6 -11t-15 -5h-101q-9 0 -15 5t-6 11v201q0 18 22 18q65 -4 93.5 18.5t28.5 53.5q0 72 -68 72q-26 0 -44 -15t-18 -41q0 -6 -6.5 -11.5t-15.5 -5.5h-110q-9 0 -15 5.5t-6 11.5q0 88 62 145t153 57z M140 75q0 37 25.5 58.5t60.5 21.5t59.5 -21t24.5 -59q0 -36 -25.5 -57.5t-60.5 -21.5q-34 0 -59 21t-25 58z"/>
<glyph unicode="@" horiz-adv-x="819" glyph-name="at" d="M391 532q77 0 130 -53.5t53 -128.5q0 -34 -9 -60h41v60q0 100 -63.5 160.5t-151.5 60.5q-100 0 -160.5 -64t-60.5 -157t61 -156.5t160 -63.5h333q9 0 15 -5t6 -12v-103q0 -7 -6 -12.5t-15 -5.5h-333q-162 0 -263 104.5t-101 253.5t101.5 254.5t262.5 105.5q152 0 258 -98 t106 -262v-163q0 -7 -6.5 -12.5t-15.5 -5.5h-342q-79 0 -131.5 52t-52.5 129q0 76 53 129t131 53zM339 350q0 -23 15 -40t37 -17t37.5 17t15.5 40t-15.5 40t-37.5 17t-37 -17t-15 -40z"/>
<glyph unicode="A" horiz-adv-x="570" glyph-name="A" d="M409 11l-27 69h-200l-25 -69v1q-3 -12 -21 -12h-119q-12 0 -17.5 7.5t-1.5 16.5q43 110 132.5 340t132.5 340q5 11 19.5 11t19.5 -11l265 -680q4 -9 -1.5 -16.5t-16.5 -7.5h-121q-16 0 -19 12v-1zM258 305l-36 -104h120l-35 104q-17 56 -24 97q-10 -51 -25 -97z"/>
<glyph unicode="B" horiz-adv-x="603" glyph-name="B" d="M547 496q0 -102 -82 -145q43 -20 66 -55.5t25 -61.5l1 -26q0 -56 -22.5 -97.5t-52 -62t-69.5 -32.5t-63 -14t-45 -2h-222q-9 0 -15 5.5t-6 11.5v665q0 7 6 12.5t15 5.5h222h13.5t34 -4t48 -10.5t50.5 -21.5t48 -36t34 -55t14 -77zM214 559v-136h91q4 0 9.5 0.5t21 4 t27 9.5t21 19.5t9.5 31.5q0 20 -9 35t-22 21.5t-26 10t-22 3.5l-9 1h-91zM305 144q98 0 98 67q0 31 -24.5 47.5t-48.5 17.5h-25h-91v-132h91z"/>
<glyph unicode="C" horiz-adv-x="694" glyph-name="C" d="M395 136q82 0 143 61q13 11 31 -3l76 -76q8 -18 0 -26q-49 -47 -114.5 -74.5t-135.5 -27.5q-151 0 -253 99.5t-102 260.5q0 158 100 259t255 101q70 0 135.5 -28t114.5 -75q9 -16 -2 -27l-78 -77q-14 -11 -27 0q-61 61 -143 61q-92 0 -146 -60t-54 -154 q0 -97 57.5 -155.5t142.5 -58.5z"/>
<glyph unicode="D" horiz-adv-x="662" glyph-name="D" d="M83 700h111q60 0 109.5 -6t108 -28t99 -58t67.5 -102.5t27 -155.5q0 -72 -18 -129.5t-50.5 -94.5t-71.5 -63t-87.5 -39t-92 -18.5t-91.5 -5.5h-111q-9 0 -15 5.5t-6 11.5v665q0 7 6 12.5t15 5.5zM216 553v-406q30 -1 56 1t60.5 13.5t59 32.5t41.5 61t17 95 q0 106 -63.5 155.5t-170.5 47.5z"/>
<glyph unicode="E" horiz-adv-x="588" glyph-name="E" d="M518 557h-303v-134h256q9 0 14.5 -5.5t5.5 -12.5v-108q0 -6 -5.5 -11.5t-14.5 -5.5h-256v-134h311q9 0 15.5 -5.5t6.5 -12.5v-111q0 -6 -6.5 -11.5t-15.5 -5.5h-443q-9 0 -15 5.5t-6 11.5v665q0 7 6 12.5t15 5.5h435q9 0 15 -5.5t6 -12.5v-107q0 -7 -6 -12.5t-15 -5.5z "/>
<glyph unicode="F" horiz-adv-x="580" glyph-name="F" d="M526 554h-311v-134h256q9 0 14.5 -5.5t5.5 -12.5v-107q0 -7 -5.5 -12.5t-14.5 -5.5h-256v-260q0 -6 -6 -11.5t-15 -5.5h-111q-9 0 -15 5.5t-6 11.5v665q0 7 6 12.5t15 5.5h443q9 0 15.5 -5.5t6.5 -12.5v-110q0 -7 -6.5 -12.5t-15.5 -5.5z"/>
<glyph unicode="G" horiz-adv-x="773" glyph-name="G" d="M444 413h231q9 0 14.5 -5.5t5.5 -11.5v-381q0 -7 -5.5 -12.5t-14.5 -5.5h-97q-9 0 -15.5 5t-6.5 12t-1 15.5t-1 20.5q-66 -60 -172 -60q-147 0 -243 97t-96 263q0 154 103 257t251 103q70 0 136 -28t114 -75q4 -5 3.5 -14t-5.5 -13l-78 -77q-6 -5 -14 -4.5t-13 5.5 q-60 60 -143 60q-85 0 -142.5 -58t-57.5 -156q0 -107 56 -160.5t144 -53.5q83 0 145 65v75h-98q-22 0 -22 17v103q0 6 6.5 11.5t15.5 5.5z"/>
<glyph unicode="H" horiz-adv-x="686" glyph-name="H" d="M473 700h111q9 0 15.5 -5.5t6.5 -12.5v-665q0 -6 -6.5 -11.5t-15.5 -5.5h-111q-9 0 -15 5.5t-6 11.5v260h-234v-260q0 -6 -6.5 -11.5t-15.5 -5.5h-111q-9 0 -15 5.5t-6 11.5v665q0 7 6 12.5t15 5.5h111q9 0 15.5 -5.5t6.5 -12.5v-258h234v258q0 7 6 12.5t15 5.5z"/>
<glyph unicode="I" horiz-adv-x="350" glyph-name="I" d="M299 564h-53v-428h57q9 0 15 -5.5t6 -11.5v-102q0 -6 -6 -11.5t-15 -5.5h-268q-9 0 -15 5.5t-6 11.5v102q0 6 6 11.5t15 5.5h58v428h-54q-9 0 -15 5.5t-6 11.5v101q0 7 6 12.5t15 5.5h260q9 0 15 -5.5t6 -12.5v-101q0 -6 -6 -11.5t-15 -5.5z"/>
<glyph unicode="J" horiz-adv-x="406" glyph-name="J" d="M84 701h232q20 0 20 -18v-472q0 -43 -12 -78t-31 -56.5t-42 -37t-46 -23t-42 -11.5t-31 -5h-12h-84q-9 0 -15 5.5t-6 11.5v111q0 7 6 12.5t15 5.5h84q18 0 31 6.5t18.5 16t9 19.5t3.5 16l1 7v354h-99q-9 0 -15 5.5t-6 11.5v101q0 7 6 12.5t15 5.5z"/>
<glyph unicode="K" horiz-adv-x="646" glyph-name="K" d="M623 672l-266 -328l268 -316q9 -10 3.5 -19t-19.5 -9h-146q-10 0 -17 7l-189 234l-9 -11v1q-4 -4 -14.5 -16.5t-17.5 -19.5v-178q0 -6 -6 -11.5t-15 -5.5h-111q-9 0 -15.5 5.5t-6.5 11.5v665q0 7 6.5 12.5t15.5 5.5h111q9 0 15 -5.5t6 -12.5v-278q46 57 134.5 165.5 t100.5 123.5q7 7 17 7h139q14 0 19.5 -9t-3.5 -19z"/>
<glyph unicode="L" horiz-adv-x="501" glyph-name="L" d="M214 146h225q9 0 15.5 -5.5t6.5 -12.5v-111q0 -6 -6.5 -11.5t-15.5 -5.5h-358q-9 0 -15 5.5t-6 11.5v665q0 7 6 12.5t15 5.5h112q9 0 15 -5.5t6 -12.5v-536z"/>
<glyph unicode="M" horiz-adv-x="916" glyph-name="M" d="M828 683v-666q0 -6 -6.5 -11.5t-15.5 -5.5h-110q-9 0 -15.5 5.5t-6.5 11.5v324q-25 -51 -75.5 -152l-75.5 -151q-1 -3 -7.5 -7t-10.5 -4h-105q-5 0 -11.5 3.5t-7.5 7.5v-1l-163 315v-335q0 -6 -6 -11.5t-15 -5.5h-112q-20 0 -20 17v666q0 18 20 18h114q13 0 19 -11 l234 -476l222 476q1 4 8 7.5t12 3.5h112q9 0 15.5 -5.5t6.5 -12.5z"/>
<glyph unicode="N" horiz-adv-x="742" glyph-name="N" d="M659 682v-665q0 -6 -6 -11.5t-15 -5.5h-112q-11 0 -17 7q-35 51 -92.5 133.5t-105.5 151t-94 133.5v-408q0 -6 -6 -11.5t-15 -5.5h-112q-9 0 -15 5.5t-6 11.5v665q0 7 6 12.5t15 5.5h113q11 0 17 -7q52 -75 148.5 -211.5t144.5 -205.5v406q0 7 6 12.5t15 5.5h110 q9 0 15 -5.5t6 -12.5z"/>
<glyph unicode="O" horiz-adv-x="638" glyph-name="O" d="M309 184q-111 0 -190 76t-79 185q0 108 79 185.5t190 77.5q110 0 189 -77.5t79 -185.5t-78.5 -184.5t-189.5 -76.5zM309 563q-48 0 -82 -34.5t-34 -83.5q0 -50 33.5 -83t82.5 -33q48 0 81.5 33t33.5 83q0 49 -33.5 83.5t-81.5 34.5zM547 127v-110q0 -6 -6.5 -11.5 t-15.5 -5.5h-438q-9 0 -15 5.5t-6 11.5v110q0 7 6 12.5t15 5.5h438q9 0 15.5 -5.5t6.5 -12.5z"/>
<glyph unicode="P" horiz-adv-x="583" glyph-name="P" d="M305 700q5 0 13.5 -0.5t34 -4.5t48 -11.5t50.5 -23t48 -37t34 -56.5t14 -78t-13.5 -78t-34.5 -56.5t-47 -37.5t-52 -23.5t-47 -11.5t-35 -4l-13 -1h-90v-260q0 -6 -6 -11.5t-15 -5.5h-111q-9 0 -15 5.5t-6 11.5v388q0 7 6 12.5t15 5.5h71q-9 13 -26 40t-26 41 q-6 10 -20 32t-20 33v113q0 7 6 12.5t15 5.5h222zM305 554h-67l82 -130q28 4 51 20t23 45q0 65 -89 65z"/>
<glyph unicode="Q" horiz-adv-x="822" glyph-name="Q" d="M697 155l61 -65q5 -5 5 -13.5t-7 -11.5l-80 -77q-15 -11 -32 3l-54 57q-88 -57 -193 -57q-149 0 -251.5 103.5t-102.5 257.5q0 148 100 253t254 105t254.5 -105t100.5 -253q0 -111 -55 -197zM599 352q0 86 -59.5 149t-142.5 63q-32 0 -66 -12q210 -228 255 -279 q13 36 13 79zM397 137q42 0 90 23l-135 148l-133 146q-23 -46 -23 -102q0 -94 58.5 -154.5t142.5 -60.5z"/>
<glyph unicode="R" horiz-adv-x="612" glyph-name="R" d="M563 0h-131q-15 0 -19 10l1 -1l-168 268h-30v-260q0 -6 -6 -11.5t-15 -5.5h-111q-9 0 -15 5.5t-6 11.5v388q0 7 6 12.5t15 5.5h72q-7 12 -22 34t-20 30l-51 82v113q0 7 6 12.5t15 5.5h222q5 0 14 -0.5t34 -4.5t48 -11.5t51 -23t48 -37t34 -56.5t14 -78q0 -145 -138 -193 l168 -270v1q7 -10 1.5 -18.5t-17.5 -8.5zM243 554l82 -130q70 4 70 65q0 65 -89 65h-63z"/>
<glyph unicode="S" horiz-adv-x="543" glyph-name="S" d="M266 -10q-99 2 -163.5 58t-65.5 153q0 7 6 12.5t15 5.5h111q8 0 14.5 -5.5t6.5 -12.5q1 -31 23 -48t53 -17q32 0 54 19t22 49q0 32 -23.5 52.5t-52.5 22.5q-56 0 -109 24q-120 57 -120 186q0 99 68.5 160t160.5 61q96 0 161 -58.5t66 -150.5q0 -6 -6.5 -11.5t-15.5 -5.5 h-109q-8 0 -15 6t-7 11q-1 30 -22 46.5t-52 16.5q-33 0 -54.5 -19.5t-21.5 -55.5q0 -31 22.5 -49t53.5 -18q57 0 108 -24q59 -27 90 -78t31 -116q0 -98 -67.5 -156t-161.5 -58z"/>
<glyph unicode="T" horiz-adv-x="448" glyph-name="T" d="M436 682v-101q0 -6 -6.5 -11.5t-15.5 -5.5h-118v-547q0 -6 -6.5 -11.5t-15.5 -5.5h-110q-9 0 -15 5.5t-6 11.5v547h-119q-9 0 -15 5.5t-6 11.5v101q0 7 6 12.5t15 5.5h390q9 0 15.5 -5.5t6.5 -12.5z"/>
<glyph unicode="U" horiz-adv-x="740" glyph-name="U" d="M84 700h553q9 0 15 -5.5t6 -12.5v-397q0 -74 -35 -144q-37 -73 -104.5 -112t-157.5 -39q-87 0 -156 40.5t-107 111.5q-35 71 -35 143v397q0 7 6 12.5t15 5.5zM484 205q22 41 22 81v278h-290v-279q0 -39 21 -80q39 -69 124 -69q86 0 123 69z"/>
<glyph unicode="V" horiz-adv-x="575" glyph-name="V" d="M18 700h531q10 0 16.5 -7.5t2.5 -16.5l-265 -693q-5 -11 -19 -11t-19 11l-267 693q-4 8 2.5 16t17.5 8zM194 568l90 -256l90 256h-180z"/>
<glyph unicode="W" horiz-adv-x="1014" glyph-name="W" d="M994 676l-267 -692q-5 -11 -19 -11t-18 11l-190 495l-189 -495q-4 -11 -19.5 -11t-19.5 12l1 -1l-265 692q-4 8 2.5 16t16.5 8h120q17 0 19 -12q23 -64 64.5 -180t61.5 -172l134 353v-1q3 12 19 12h111q17 0 20 -12v1l133 -355l126 354q3 12 20 12h119q12 0 18 -7.5 t2 -16.5z"/>
<glyph unicode="X" horiz-adv-x="674" glyph-name="X" d="M8 28l228 322q-15 21 -112 157l-116 165h1q-8 9 -3 18.5t18 9.5h136q12 0 18 -7l152 -213l152 213q7 7 18 7h136q13 0 18.5 -9.5t-2.5 -18.5h1l-230 -322l75 -105t56 -78q17 -22 50 -69.5t49 -69.5h-1q8 -9 2.5 -18.5t-18.5 -9.5h-136q-12 0 -18 7l-152 213l-152 -213 q-7 -7 -18 -7h-136q-13 0 -18 9.5t3 18.5h-1z"/>
<glyph unicode="Y" horiz-adv-x="645" glyph-name="Y" d="M483 700h136q13 0 18.5 -9.5t-2.5 -18.5h1l-246 -345v-310q0 -6 -6 -11.5t-15 -5.5h-111q-9 0 -15 5.5t-6 11.5v310q-22 31 -67.5 94.5t-67.5 94.5q-18 25 -55.5 78t-55.5 78h1q-8 9 -2.5 18.5t18.5 9.5h135q12 0 18 -7q29 -42 81.5 -113.5t71.5 -98.5l152 212q7 7 17 7z "/>
<glyph unicode="Z" horiz-adv-x="475" glyph-name="Z" d="M446 128v-111q0 -6 -6.5 -11.5t-15.5 -5.5h-387q-12 0 -17.5 7.5t-1.5 16.5l212 530h-194q-9 0 -15 5.5t-6 12.5v110q0 7 6 12.5t15 5.5h387q12 0 18 -7.5t2 -16.5q-35 -88 -106.5 -265t-106.5 -265h194q9 0 15.5 -5.5t6.5 -12.5z"/>
<glyph unicode="[" horiz-adv-x="344" glyph-name="bracketleft" d="M78 700h222q9 0 15.5 -5.5t6.5 -12.5v-110q0 -7 -6.5 -12.5t-15.5 -5.5h-88v-408h88q9 0 15.5 -5.5t6.5 -12.5v-111q0 -6 -6.5 -11.5t-15.5 -5.5h-222q-8 0 -14 5.5t-6 11.5v665q0 7 6 12.5t14 5.5z"/>
<glyph unicode="\" horiz-adv-x="454" glyph-name="backslash" d="M138 689l308 -666q4 -9 -1.5 -16.5t-16.5 -7.5h-114q-5 0 -11.5 3.5t-7.5 7.5l-308 666q-4 8 1.5 16t16.5 8h114q13 0 19 -11z"/>
<glyph unicode="]" horiz-adv-x="352" glyph-name="bracketright" d="M284 682v-665q0 -7 -5.5 -12t-14.5 -5h-222q-9 0 -15 5.5t-6 11.5v111q0 7 6 12.5t15 5.5h89v408h-89q-9 0 -15 5.5t-6 12.5v110q0 7 6 12.5t15 5.5h222q20 0 20 -18z"/>
<glyph unicode="^" horiz-adv-x="447" glyph-name="asciicircum" d="M428 475l-62 -58q-14 -11 -28 0l-128 125l-60 -59l-70 -66q-14 -10 -27 0l-61 58q-7 5 -7 14t7 14l-1 -1l204 193q14 11 29 0l205 -193l-1 1q7 -5 6.5 -14t-6.5 -14z"/>
<glyph unicode="_" horiz-adv-x="539" glyph-name="underscore" d="M505 17v-92q0 -17 -21 -17h-439q-10 0 -16 5t-6 12v92q0 6 6.5 11.5t15.5 5.5h439q9 0 15 -5.5t6 -11.5z"/>
<glyph unicode="`" horiz-adv-x="265" glyph-name="grave" d="M260 606l-48 -81q-8 -9 -32 0l-169 92q-9 2 -11 10t3 15v-1l54 86q5 8 30 -2l166 -95h-2q9 -4 12 -11t-3 -14v1z"/>
<glyph unicode="a" horiz-adv-x="571" glyph-name="a" d="M405 11l-27 69h-198l-25 -69v1q-3 -12 -20 -12h-118q-12 0 -17.5 7.5t-1.5 16.5q42 109 131 338.5t131 338.5q5 11 19.5 11t19.5 -11l262 -677q4 -9 -1.5 -16.5t-16.5 -7.5h-119q-16 0 -19 12v-1zM255 304l-35 -104h118l-34 104q-17 57 -24 96q-9 -49 -25 -96z"/>
<glyph unicode="b" horiz-adv-x="603" glyph-name="b" d="M540 492q0 -95 -81 -139q42 -20 64 -57t23 -64l2 -27q0 -55 -22 -96t-50.5 -61t-67.5 -32t-62 -14t-45 -2h-217q-9 0 -14.5 5.5t-5.5 11.5v658q0 7 5.5 12t14.5 5h217h13.5t33.5 -3.5t47.5 -10t50 -21.5t47.5 -35t33.5 -54t13.5 -76zM214 550v-135h87q10 0 21.5 2.5 t28 8.5t27.5 21.5t11 38.5q0 31 -22 47t-44 17h-22h-87zM301 142q38 0 67.5 15t29.5 52q0 70 -97 70h-87v-137h87z"/>
<glyph unicode="c" horiz-adv-x="694" glyph-name="c" d="M390 134q80 0 141 59q13 11 27 0l76 -77q5 -4 5 -13t-5 -14q-102 -99 -244 -99q-147 0 -247.5 97.5t-100.5 255.5q0 156 98 257.5t250 101.5q70 0 134 -27t112 -73q9 -15 -2 -26l-76 -76q-14 -11 -27 0q-62 60 -141 60q-89 0 -142 -62t-53 -155q0 -95 56 -152t139 -57z "/>
<glyph unicode="d" horiz-adv-x="662" glyph-name="d" d="M85 692h109q402 0 402 -344q0 -84 -26 -148t-65.5 -101t-95.5 -60.5t-107 -31t-108 -7.5h-109q-9 0 -15 5.5t-6 11.5v658q0 7 6 12t15 5zM215 555v-416q28 -1 55 2.5t60 16.5t57.5 34.5t41 61.5t16.5 94q0 207 -212 207h-18z"/>
<glyph unicode="e" horiz-adv-x="588" glyph-name="e" d="M519 551h-305v-137h251q20 0 20 -17v-105q0 -7 -5.5 -12t-14.5 -5h-251v-135h305q10 0 16 -5t6 -12v-106q0 -6 -6.5 -11.5t-15.5 -5.5h-435q-9 0 -14.5 5.5t-5.5 11.5v658q0 7 5.5 12t14.5 5h435q10 0 16 -5t6 -12v-107q0 -6 -6.5 -11.5t-15.5 -5.5z"/>
<glyph unicode="f" horiz-adv-x="580" glyph-name="f" d="M519 543h-305v-129h251q20 0 20 -17v-108q0 -7 -5.5 -12t-14.5 -5h-251v-255q0 -17 -21 -17h-109q-9 0 -14.5 5.5t-5.5 11.5v652q0 7 5.5 12.5t14.5 5.5h435q9 0 15.5 -5.5t6.5 -12.5v-108q0 -7 -6.5 -12.5t-15.5 -5.5z"/>
<glyph unicode="g" horiz-adv-x="773" glyph-name="g" d="M385 409h284q9 0 15 -5.5t6 -12.5v-376q0 -6 -6 -11.5t-15 -5.5h-96q-21 0 -21 16q0 8 -1 16t-1 19q-70 -60 -169 -60q-146 0 -240.5 95.5t-94.5 261.5q0 153 101 254.5t248 101.5q143 0 247 -101q4 -5 3.5 -13.5t-5.5 -12.5l-77 -77q-13 -10 -27 0q-59 61 -141 61 q-84 0 -140.5 -57.5t-56.5 -155.5q0 -106 55 -159t142 -53q85 0 146 64v79h-156q-9 0 -15 5.5t-6 11.5v97q0 7 6 12.5t15 5.5z"/>
<glyph unicode="h" horiz-adv-x="686" glyph-name="h" d="M467 692h110q8 0 14 -5t6 -12v-658q0 -6 -6 -11.5t-14 -5.5h-110q-9 0 -15 5.5t-6 11.5v264h-229v-264q0 -6 -6 -11.5t-15 -5.5h-109q-9 0 -15 5.5t-6 11.5v658q0 7 6 12t15 5h109q9 0 15 -5t6 -12v-253h229v253q0 7 6 12t15 5z"/>
<glyph unicode="i" horiz-adv-x="280" glyph-name="i" d="M60 17v658q0 7 6 12t15 5h109q21 0 21 -17v-658q0 -6 -6 -11.5t-15 -5.5h-109q-9 0 -15 5.5t-6 11.5z"/>
<glyph unicode="j" horiz-adv-x="406" glyph-name="j" d="M201 692h110q9 0 14.5 -5t5.5 -12v-468q0 -42 -11.5 -76.5t-30 -55.5t-41 -36.5t-45.5 -22.5t-41.5 -11t-29.5 -5h-12h-82q-9 0 -15 5.5t-6 11.5v109q0 7 6 12t15 5h82q27 0 42.5 16t17.5 32l1 16v468q0 17 20 17z"/>
<glyph unicode="k" horiz-adv-x="646" glyph-name="k" d="M617 664l-262 -324l264 -312q9 -10 3.5 -19t-19.5 -9h-143q-10 0 -17 7l-188 231q-2 -2 -4.5 -5.5t-5.5 -6.5v1q-17 -22 -29 -34v-176q0 -6 -6 -11.5t-15 -5.5h-109q-9 0 -15.5 5.5t-6.5 11.5v658q0 7 6 12t16 5h109q21 0 21 -17v-281l232 292q12 6 16 6h137 q14 0 19.5 -9t-3.5 -19z"/>
<glyph unicode="l" horiz-adv-x="501" glyph-name="l" d="M213 143h220q9 0 15 -5t6 -12v-109q0 -6 -6 -11.5t-15 -5.5h-350q-9 0 -15 5.5t-6 11.5v658q0 17 21 17h109q9 0 15 -5t6 -12v-532z"/>
<glyph unicode="m" horiz-adv-x="916" glyph-name="m" d="M816 675v-658q0 -6 -6 -11.5t-15 -5.5h-108q-9 0 -15.5 5.5t-6.5 11.5v328l-147 -308q-6 -11 -19 -11h-103q-14 0 -18 11l-160 320v-340q0 -6 -6 -11.5t-15 -5.5h-109q-9 0 -15 5.5t-6 11.5v658q0 7 6 12t15 5h111q14 0 19 -10l229 -473l218 473q4 10 20 10h110 q21 0 21 -17z"/>
<glyph unicode="n" horiz-adv-x="742" glyph-name="n" d="M650 676v-659q0 -6 -6 -11.5t-15 -5.5h-109q-12 0 -18 7l-286 417v-407q0 -6 -6 -11.5t-15 -5.5h-109q-20 0 -20 17v659q0 17 20 17h110q12 0 17 -6l287 -422v411q0 7 6 12t15 5h108q21 0 21 -17z"/>
<glyph unicode="o" horiz-adv-x="797" glyph-name="o" d="M385 702q82 0 149 -30.5t109 -81t64 -113t22 -130.5t-22 -130.5t-64 -113.5t-109 -81.5t-149 -30.5q-83 0 -150.5 30.5t-109 81.5t-63.5 113.5t-22 130.5q0 92 37 171t117.5 131.5t190.5 52.5zM385 132q89 0 140 63t51 150t-51 151.5t-140 64.5q-90 0 -140.5 -64 t-50.5 -152q0 -87 50.5 -150t140.5 -63z"/>
<glyph unicode="p" horiz-adv-x="580" glyph-name="p" d="M302 692q13 0 28 -1.5t46 -7t57 -20t52 -36t41 -60t15 -87.5t-16 -87.5t-43 -60t-53.5 -35.5t-57.5 -19t-44.5 -6.5t-24.5 -1.5h-88v-255q0 -17 -21 -17h-109q-9 0 -14.5 5.5t-5.5 11.5v660q0 7 5.5 12t14.5 5h218zM302 413q10 0 21 1.5t28.5 7t28.5 20.5t11 38t-11.5 38 t-28.5 21t-28.5 8t-20.5 2h-88v-136h88z"/>
<glyph unicode="q" horiz-adv-x="827" glyph-name="q" d="M739 62l-76 -75q-13 -11 -26 0l-58 57q-89 -54 -189 -54q-152 0 -249.5 105.5t-97.5 251.5q0 147 95.5 251t251.5 104q151 0 249.5 -104.5t98.5 -250.5q0 -106 -56 -200l57 -58q6 -5 6 -13.5t-6 -13.5zM390 133q40 0 80 18l-21 22l-31 31l1 -1q-7 5 -6.5 13.5t6.5 13.5 l77 77q14 8 27 0l49 -49q16 43 16 89q0 89 -53 151t-145 62q-89 0 -142.5 -62.5t-53.5 -150.5q0 -87 55 -150.5t141 -63.5z"/>
<glyph unicode="r" horiz-adv-x="599" glyph-name="r" d="M387 11l-122 266h-51v-260q0 -6 -6.5 -11.5t-15.5 -5.5h-109q-9 0 -14.5 5.5t-5.5 11.5v658q0 7 5.5 12t14.5 5h217q17 0 32.5 -1.5t47 -6.5t56.5 -19t50.5 -35.5t39.5 -59.5t14 -87q0 -138 -122 -186q6 -13 29.5 -64t35.5 -76l61 -133q4 -9 -1 -16.5t-17 -7.5h-120 q-5 0 -11.5 3.5t-7.5 7.5zM214 551v-141h86q89 0 89 70q0 29 -20 46.5t-37 21t-32 3.5h-86z"/>
<glyph unicode="s" horiz-adv-x="543" glyph-name="s" d="M264 -10q-98 2 -161 57t-64 151q0 16 21 16h109q21 0 21 -16q1 -31 22 -47.5t52 -16.5t52.5 18t21.5 48t-23.5 51t-50.5 23q-56 0 -107 23q-56 27 -87 76t-31 112q0 97 66.5 156.5t158.5 59.5q93 0 157 -57t65 -147q0 -7 -6 -12t-15 -5h-108q-8 0 -14.5 5t-6.5 12 q-1 29 -22 45.5t-50 16.5q-32 0 -53 -19t-21 -55q0 -32 22 -52t52 -20q55 0 105 -23q57 -26 88 -76.5t31 -113.5q0 -97 -66 -153.5t-158 -56.5z"/>
<glyph unicode="t" horiz-adv-x="448" glyph-name="t" d="M429 669v-100q0 -16 -21 -16h-116v-536q0 -7 -5.5 -12t-14.5 -5h-109q-20 0 -20 17v536h-117q-21 0 -21 16v100q0 7 6 12.5t15 5.5h382q9 0 15 -5.5t6 -12.5z"/>
<glyph unicode="u" horiz-adv-x="683" glyph-name="u" d="M330 -10q-113 0 -189.5 65t-76.5 171v443q0 7 6 12.5t15 5.5h109q9 0 15 -5.5t6 -12.5v-441q7 -43 39.5 -68.5t75.5 -25.5q46 0 80 24t34 68v443q0 7 6 12.5t15 5.5h110q8 0 14 -5.5t6 -12.5v-443q0 -109 -74.5 -172.5t-190.5 -63.5z"/>
<glyph unicode="v" horiz-adv-x="571" glyph-name="v" d="M424 692h117q12 0 17.5 -7t1.5 -17l-261 -675q-5 -10 -19 -10t-19 10l-259 675q-4 9 1.5 16.5t16.5 7.5h117q17 0 19 -11q13 -36 56 -155t68 -190l59.5 164.5t65.5 180.5q2 11 19 11z"/>
<glyph unicode="w" horiz-adv-x="1005" glyph-name="w" d="M975 668l-261 -683q-4 -12 -18 -12t-19 12l-186 492q-29 -78 -91 -242.5t-93 -249.5q-5 -12 -19.5 -12t-19.5 12l-259 683q-4 9 2 16.5t17 7.5h117q17 0 19 -11q22 -62 62 -173t62 -172l125 345q4 11 18 11h121q15 0 19 -11q22 -62 62.5 -173t61.5 -172l125 345 q4 11 19 11h118q12 0 17 -7t1 -17z"/>
<glyph unicode="x" horiz-adv-x="674" glyph-name="x" d="M10 28l225 315q-59 83 -225 321h1q-8 10 -2.5 19t19.5 9h132q12 0 18 -6q45 -66 150 -216l148 216q6 6 17 6h134q12 0 18 -9t-1 -19l-226 -321q18 -24 50 -69t46 -65q62 -87 130 -181q7 -10 1 -19t-18 -9h-134q-13 0 -17 7q-26 36 -74.5 107t-73.5 108 q-25 -34 -75 -107.5t-75 -107.5q-7 -7 -18 -7h-132q-14 0 -19.5 9t2.5 19h-1z"/>
<glyph unicode="y" horiz-adv-x="655" glyph-name="y" d="M486 692h134q14 0 19 -9t-3 -19h1l-241 -343v-304q0 -6 -6 -11.5t-15 -5.5h-109q-9 0 -15 5.5t-6 11.5v304l-84 119l-158 224h1q-8 10 -2.5 19t19.5 9h133q11 0 17 -6q29 -43 83 -119t67 -95l149 214q10 6 16 6z"/>
<glyph unicode="z" horiz-adv-x="583" glyph-name="z" d="M538 0h-529q-12 0 -18 8t1 19v-1l319 523h-274q-8 0 -14 5.5t-6 11.5v109q0 7 6 12t14 5h501q13 0 19 -6.5t2 -14.5l-322 -528h301q20 0 20 -17v-109q0 -17 -20 -17z"/>
<glyph unicode="{" horiz-adv-x="346" glyph-name="braceleft" d="M91 420v262q0 7 6.5 12.5t15.5 5.5h186q20 0 20 -18v-110q0 -18 -20 -18h-54v-408h54q20 0 20 -18v-111q0 -7 -5.5 -12t-14.5 -5h-186q-9 0 -15.5 5.5t-6.5 11.5v262l-40 20q-8 4 -22 11.5t-25.5 13.5t-22.5 10h1q-14 5 -14 16t14 16h-1z"/>
<glyph unicode="|" horiz-adv-x="281" glyph-name="bar" d="M72 700h111q9 0 15 -5.5t6 -12.5v-665q0 -6 -6 -11.5t-15 -5.5h-111q-9 0 -15.5 5.5t-6.5 11.5v665q0 7 6.5 12.5t15.5 5.5z"/>
<glyph unicode="}" horiz-adv-x="360" glyph-name="braceright" d="M250 280v-263q0 -6 -6.5 -11.5t-15.5 -5.5h-185q-21 0 -21 17v111q0 18 21 18h53v408h-53q-21 0 -21 18v110q0 18 21 18h185q9 0 15.5 -5.5t6.5 -12.5v-262q1 0 41 -19q58 -30 70 -35h-1q13 -5 13 -16t-13 -16h1z"/>
<glyph unicode="~" horiz-adv-x="464" glyph-name="asciitilde" d="M119 250l-92 25q-7 2 -12 7.5t-4 12.5q11 57 47.5 87.5t88.5 30.5q46 0 101 -25l5 -1q22 -10 32 -10q12 0 22 23q11 11 25 8l92 -27q9 -1 14 -8.5t1 -13.5v1q-37 -114 -133 -114q-46 0 -103 23l-11 5l-15 4q-18 6 -19 6q-6 0 -11 -20q-10 -17 -28 -14zM247 388l-1 1z"/>
<glyph unicode="¡" horiz-adv-x="276" glyph-name="exclamdown" d="M189 -8h-111q-9 0 -15.5 5.5t-6.5 12.5v471q0 7 6.5 12.5t15.5 5.5h111q9 0 15 -5.5t6 -12.5v-471q0 -7 -6 -12.5t-15 -5.5zM133 539q-35 0 -59.5 24t-24.5 57t24 56.5t60 23.5q35 0 60 -24t25 -56q0 -33 -25 -57t-60 -24z"/>
<glyph unicode="¢" horiz-adv-x="580" glyph-name="cent" d="M250 17v55q-95 26 -155.5 103t-60.5 175t60.5 174.5t155.5 102.5v69q0 7 6 12.5t15 5.5h86q9 0 15 -5.5t6 -12.5v-61q87 -15 159 -82q13 -21 -1 -35l-61 -61q-11 -11 -24 -10t-22 13l2 -1q-29 24 -53 32v-283q32 13 54 35q20 20 41 2l64 -65q13 -21 -1 -35 q-59 -59 -158 -80v-48q0 -7 -6 -12.5t-15 -5.5h-86q-9 0 -15 5.5t-6 12.5zM188 350q0 -87 62 -127v252q-62 -44 -62 -125z"/>
<glyph unicode="£" horiz-adv-x="592" glyph-name="sterling" d="M343 231h-126q-11 -70 -12 -80h324q9 0 15 -5.5t6 -12.5v-116q0 -6 -6 -11.5t-15 -5.5h-463q-9 0 -15 5.5t-6 11.5v58q0 82 11 156h-43q-22 0 -22 17v117q0 16 22 16h85l3 9v-1q2 5 5.5 14t5.5 15t4 9v-1q57 118 165 192q53 33 116 53.5t92 24.5t41 4q9 0 15 -5.5 t6 -12.5v-115q0 -7 -6 -12.5t-15 -5.5q-8 0 -25 -2t-59.5 -16.5t-78.5 -39.5q-58 -41 -98 -110h74q22 0 22 -16v-117q0 -17 -22 -17z"/>
<glyph unicode="¥" horiz-adv-x="640" glyph-name="yen" d="M483 700h136q13 0 18.5 -9.5t-2.5 -18.5h1l-194 -271h49q9 0 15 -5.5t6 -12.5v-78q0 -7 -6 -12.5t-15 -5.5h-101v-41h101q9 0 15 -5.5t6 -12.5v-75q0 -7 -6 -12.5t-15 -5.5h-101v-118q0 -6 -6 -11.5t-15 -5.5h-111q-9 0 -15 5.5t-6 11.5v118h-104q-9 0 -15.5 5.5 t-6.5 12.5v75q0 7 6.5 12.5t15.5 5.5h104v41h-105q-9 0 -15.5 5.5t-6.5 12.5v78q0 7 6.5 12.5t15.5 5.5h49l-190 271h1q-8 9 -2.5 18.5t18.5 9.5h135q12 0 18 -7q143 -208 153 -223l152 223q7 7 17 7z"/>
<glyph unicode="§" horiz-adv-x="416" glyph-name="section" d="M283 491q90 -42 92 -142q0 -62 -35 -101q35 -39 35 -102q0 -45 -25 -83t-67 -58q-41 -20 -82 -20q-38 0 -82 20q-42 21 -67 58.5t-25 82.5q0 7 6 12t16 5h80q10 0 16 -5t6 -12q0 -27 20 -36q14 -7 30 -7q18 0 33 8q18 9 18 35q0 28 -20 37q-15 7 -31 7q-39 0 -86 20 q-40 21 -63.5 58t-24.5 82q0 59 37 102q-37 40 -37 101q0 45 25 82.5t67 58.5q44 20 82 20q41 0 82 -20q42 -20 67 -58t25 -83q0 -7 -6 -12t-15 -5h-81q-21 0 -21 17q0 27 -20 36q-7 4 -28 7l-4 1l-2 -1h-4q-19 -2 -27 -8q-16 -9 -16 -35q0 -28 20 -37q7 -3 14.5 -5t11.5 -2 h4q42 0 82 -18zM234 314q18 9 18 36q0 26 -21 36h2q-18 7 -31 7q-12 0 -34 -8h2q-19 -9 -19 -35q0 -27 20 -37h-1q18 -7 31 -7q16 0 33 8z"/>
<glyph unicode="¨" horiz-adv-x="376" glyph-name="dieresis" d="M166 626q0 -32 -25.5 -56t-59.5 -24q-32 0 -57 24t-25 56t25 56t57 24q34 0 59.5 -24t25.5 -56zM374 626q0 -32 -25 -56t-58 -24q-34 0 -59 24t-25 56t25 56t59 24q33 0 58 -24t25 -56z"/>
<glyph unicode="©" horiz-adv-x="692" glyph-name="copyright" d="M335 700q128 0 217.5 -89t89.5 -214t-89.5 -213t-217.5 -88q-127 0 -216 88t-89 213t89 214t216 89zM335 204q79 0 134.5 56.5t55.5 136.5t-55.5 137t-134.5 57q-77 0 -133 -57t-56 -137q0 -79 56 -136t133 -57zM342 327q26 0 50 21q12 10 26 0l35 -31q5 -5 5 -13t-5 -12 q-45 -45 -111 -45q-62 0 -108.5 45t-46.5 106t46.5 106.5t108.5 45.5q65 0 111 -44q5 -5 5 -13.5t-5 -12.5l-35 -32q-13 -10 -25 0q-25 23 -51 23q-28 0 -47.5 -21.5t-19.5 -51.5q0 -29 19.5 -50t47.5 -21z"/>
<glyph unicode="«" horiz-adv-x="504" glyph-name="guillemotleft" d="M206 556l71 -56q12 -12 3 -25l-118 -152l122 -138h-1q13 -13 -3 -26h1l-72 -59q-13 -10 -29 2l-177 209q-8 11 0 21q32 40 92.5 118t80.5 103q5 5 14.5 6.5t15.5 -3.5zM432 556l71 -56q16 -13 3 -26l2 1l-111 -154l114 -137q10 -13 -4 -25h1l-73 -59q-13 -10 -28 2 l-175 209q-10 11 0 21l171 221q5 5 14 6.5t15 -3.5z"/>
<glyph unicode="®" horiz-adv-x="675" glyph-name="registered" d="M330 730q140 0 238.5 -98t98.5 -235q0 -138 -98 -234.5t-239 -96.5q-140 0 -237.5 96.5t-97.5 234.5q0 137 97.5 235t237.5 98zM330 180q88 0 151 64t63 153q0 90 -62.5 153.5t-151.5 63.5q-87 0 -149.5 -63.5t-62.5 -153.5q0 -89 62.5 -153t149.5 -64zM362 255l-44 104 h-9v-100q0 -7 -6 -12.5t-15 -5.5h-48q-20 0 -20 18v272q0 17 20 17h94q53 0 85.5 -27.5t32.5 -70.5q0 -48 -52 -79l52 -106q4 -9 -2 -16.5t-18 -7.5h-49q-14 0 -21 14zM303 476v-49h31q19 0 27.5 12.5t1 24.5t-28.5 12h-31z"/>
<glyph unicode="°" horiz-adv-x="365" glyph-name="degree" d="M177 389q-68 0 -117 48t-49 114q0 67 49 115.5t117 48.5q69 0 118 -48.5t49 -115.5q0 -66 -49 -114t-118 -48zM177 605q-19 0 -33.5 -16t-14.5 -38q0 -21 14 -36t34 -15t34.5 15t14.5 36q0 22 -14.5 38t-34.5 16z"/>
<glyph unicode="±" horiz-adv-x="518" glyph-name="plusminus" d="M465 428v-96q0 -6 -6 -11.5t-14 -5.5h-127v-133q0 -7 -6 -12.5t-15 -5.5h-99q-21 0 -21 18v133h-127q-9 0 -15 5.5t-6 11.5v96q0 17 21 17h127v131q0 17 21 17h99q9 0 15 -5.5t6 -11.5v-131h127q9 0 14.5 -5t5.5 -12zM421 0v119h-349v-119h349z"/>
<glyph unicode="²" horiz-adv-x="341" glyph-name="twosuperior" d="M284 365v-64q0 -6 -6 -11.5t-14 -5.5h-224q-9 0 -15 5.5t-6 11.5v62l135 189q14 20 14 35q0 23 -19 23q-24 0 -24 -25q0 -6 -6.5 -11.5t-15.5 -5.5h-63q-9 0 -15 5.5t-6 11.5q0 53 36.5 88t95.5 35q55 0 91.5 -33t36.5 -83q0 -45 -31 -87l-87 -124h103q8 0 14 -4.5 t6 -11.5z"/>
<glyph unicode="³" horiz-adv-x="333" glyph-name="threesuperior" d="M158 284q-55 0 -93.5 37.5t-38.5 91.5q0 6 6 11.5t15 5.5h63q9 0 15.5 -5.5t6.5 -11.5q0 -13 7.5 -22t18.5 -9q13 0 22 9.5t9 21.5q0 16 -7 27t-18 11h-27q-21 0 -21 17v53q0 7 6 12.5t15 5.5h28q10 0 16 10t6 23q0 12 -9 21t-20 9t-19.5 -9t-8.5 -21q0 -7 -6.5 -12.5 t-15.5 -5.5h-61q-9 0 -15 5.5t-6 12.5q0 52 38.5 90t93.5 38t95 -36.5t40 -91.5q0 -44 -33 -77q36 -33 36 -82q0 -60 -40.5 -94.5t-97.5 -34.5z"/>
<glyph unicode="´" horiz-adv-x="278" glyph-name="acute" d="M52 530l-49 82q-6 6 -3.5 13.5t11.5 10.5q33 19 93 51.5t83 44.5q25 10 30 2l56 -89q5 -13 -11 -21h1l-178 -93q-26 -9 -33 -1z"/>
<glyph unicode="·" horiz-adv-x="204" glyph-name="periodcentered" d="M94 435q36 0 60.5 -24.5t24.5 -57.5t-24.5 -56.5t-60.5 -23.5q-34 0 -59 24t-25 56q0 33 25 57.5t59 24.5z"/>
<glyph unicode="¸" horiz-adv-x="429" glyph-name="cedilla" d="M201 -228q-75 0 -128 52.5t-53 124.5q0 7 6 12.5t15 5.5h90q9 0 15.5 -5.5t6.5 -12.5q0 -21 14 -36t34 -15q19 0 33 15t14 36q0 22 -14 37t-33 15q-9 0 -15 5.5t-6 11.5v92q0 16 21 16q74 0 127.5 -52t53.5 -125q0 -72 -53.5 -124.5t-127.5 -52.5z"/>
<glyph unicode="¹" horiz-adv-x="267" glyph-name="onesuperior" d="M198 682v-328q0 -7 -6.5 -12.5t-15.5 -5.5h-64q-9 0 -15 5.5t-6 12.5v227q-4 -2 -12.5 -4.5t-9.5 -2.5v1q-17 -7 -28 6l-23 61q-9 14 12 22h-1l88 36h59q9 0 15.5 -5.5t6.5 -12.5z"/>
<glyph unicode="»" horiz-adv-x="535" glyph-name="guillemotright" d="M255 500l71 56q6 5 15 3.5t14 -6.5l174 -221q10 -10 0 -21q-7 -8 -76 -88.5t-102 -120.5q-15 -11 -29 -2l-72 59q-13 11 -3 25q21 26 59.5 72t54.5 65l-111 154l2 -1q-13 13 3 26zM20 500l72 56q15 10 28 -3l174 -221q10 -10 0 -21q-28 -34 -89 -105t-89 -104 q-15 -12 -27 -2l-73 59q-14 12 -9 19l120 144l-112 153l2 -1q-12 12 3 26z"/>
<glyph unicode="¿" horiz-adv-x="490" glyph-name="questiondown" d="M241 -10q-97 0 -159 57t-62 161q0 62 44.5 114t109.5 73v104q0 6 5.5 11t15.5 5h101q9 0 15 -5t6 -11v-202q0 -17 -23 -17q-65 4 -93 -18.5t-28 -53.5q0 -72 68 -72q26 0 44 15t18 41q0 6 6 11.5t15 5.5h111q20 0 20 -17q0 -88 -61.5 -145t-152.5 -57zM327 625 q0 -37 -25.5 -58.5t-59.5 -21.5t-59 21t-25 59q0 36 25.5 57.5t59.5 21.5t59 -21t25 -58z"/>
<glyph unicode="À" d="M400 11l-27 69h-200l-25 -69v1q-3 -12 -21 -12h-119q-12 0 -17.5 7.5t-1.5 16.5q43 110 132.5 340t132.5 340q5 11 19.5 11t19.5 -11l265 -680q4 -9 -1.5 -16.5t-16.5 -7.5h-121q-16 0 -19 12v-1zM249 305l-36 -104h120l-35 104q-17 56 -24 97q-10 -51 -25 -97zM408 808 l-48 -81q-8 -9 -32 0l-169 92q-9 2 -11 10t3 15v-1l54 86q5 8 30 -2l166 -95h-2q9 -4 12 -11t-3 -14v1z" glyph-name="Agrave"/>
<glyph unicode="Á" d="M400 11l-27 69h-200l-25 -69v1q-3 -12 -21 -12h-119q-12 0 -17.5 7.5t-1.5 16.5q43 110 132.5 340t132.5 340q5 11 19.5 11t19.5 -11l265 -680q4 -9 -1.5 -16.5t-16.5 -7.5h-121q-16 0 -19 12v-1zM249 305l-36 -104h120l-35 104q-17 56 -24 97q-10 -51 -25 -97zM191 726 l-49 82q-6 6 -3.5 13.5t11.5 10.5q33 19 93 51.5t83 44.5q25 10 30 2l56 -89q5 -13 -11 -21h1l-178 -93q-26 -9 -33 -1z" glyph-name="Aacute"/>
<glyph unicode="Â" d="M400 11l-27 69h-200l-25 -69v1q-3 -12 -21 -12h-119q-12 0 -17.5 7.5t-1.5 16.5q43 110 132.5 340t132.5 340q5 11 19.5 11t19.5 -11l265 -680q4 -9 -1.5 -16.5t-16.5 -7.5h-121q-16 0 -19 12v-1zM249 305l-36 -104h120l-35 104q-17 56 -24 97q-10 -51 -25 -97zM138 722 l-44 65v-1q-5 6 -2.5 14t11.5 12h-2l162 93q2 1 9.5 1t10.5 -1l165 -88h-2q22 -9 10 -25v1l-43 -73q-11 -10 -28 -7l-112 63q-14 -8 -49 -29.5t-54 -31.5q-18 -7 -32 7z" glyph-name="Acircumflex"/>
<glyph unicode="Ã" d="M400 11l-27 69h-200l-25 -69v1q-3 -12 -21 -12h-119q-12 0 -17.5 7.5t-1.5 16.5q43 110 132.5 340t132.5 340q5 11 19.5 11t19.5 -11l265 -680q4 -9 -1.5 -16.5t-16.5 -7.5h-121q-16 0 -19 12v-1zM249 305l-36 -104h120l-35 104q-17 56 -24 97q-10 -51 -25 -97zM183 739 l-77 21h1q-16 3 -16 20q8 54 40 82.5t78 28.5q47 0 84 -23h2q20 -9 31 -9q8 0 15 17q8 12 30 9l72 -23h-2q24 -6 16 -23l1 1q-30 -105 -117 -105q-33 0 -85 21l-13 4q-20 9 -26 9q-2 0 -6 -15q-9 -18 -28 -15z" glyph-name="Atilde"/>
<glyph unicode="Ä" d="M400 11l-27 69h-200l-25 -69v1q-3 -12 -21 -12h-119q-12 0 -17.5 7.5t-1.5 16.5q43 110 132.5 340t132.5 340q5 11 19.5 11t19.5 -11l265 -680q4 -9 -1.5 -16.5t-16.5 -7.5h-121q-16 0 -19 12v-1zM249 305l-36 -104h120l-35 104q-17 56 -24 97q-10 -51 -25 -97zM259 809 q0 -32 -25.5 -56t-59.5 -24q-32 0 -57 24t-25 56t25 56t57 24q34 0 59.5 -24t25.5 -56zM467 809q0 -32 -25 -56t-58 -24q-34 0 -59 24t-25 56t25 56t59 24q33 0 58 -24t25 -56z" glyph-name="Adieresis"/>
<glyph unicode="Å" horiz-adv-x="570" glyph-name="Aring" d="M432 766q0 -54 -28.5 -88.5t-73.5 -46.5l237 -607q4 -9 -1.5 -16.5t-16.5 -7.5h-121q-16 0 -19 12v-1l-27 69h-200l-25 -69v1q-3 -12 -21 -12h-119q-12 0 -17.5 7.5t-1.5 16.5l237 608q-45 13 -73.5 47.5t-28.5 86.5q0 66 46.5 103t103 37.5t103 -37t46.5 -103.5z M258 305l-36 -104h120l-35 104q-17 56 -24 97q-10 -51 -25 -97zM329 766q0 29 -23 41t-46 0.5t-23 -41.5t23 -42.5t46 0t23 42.5z"/>
<glyph unicode="Æ" horiz-adv-x="791" glyph-name="AE" d="M715 560h-217v-137h172q9 0 15.5 -5.5t6.5 -12.5v-103q0 -6 -6.5 -11.5t-15.5 -5.5h-172v-147h228q9 0 15 -5.5t6 -11.5v-104q0 -6 -6 -11.5t-15 -5.5h-349q-9 0 -15 5.5t-6 11.5v70h-148q-8 -14 -18.5 -40.5t-15.5 -37.5v1q-6 -10 -20 -10h-128q-13 0 -19 8.5t1 18.5 l-1 -1l306 660q6 13 22 14h380q9 0 15 -5.5t6 -12.5v-105q0 -6 -6 -11.5t-15 -5.5zM266 218h90q0 15 1 44.5t3 85t4 107.5z"/>
<glyph unicode="Ç" horiz-adv-x="694" glyph-name="Ccedilla" d="M396 145q82 0 143 61q15 9 31 0l78 -82l-1 1q16 -12 0 -26q-59 -61 -127 -86q45 -30 45 -88q0 -73 -52 -116t-133 -43t-132 46t-51 121q0 16 22 16h92q21 0 21 -16q0 -20 13.5 -31t34.5 -11q20 0 34.5 16.5t14.5 38.5q0 19 -11 33t-26 18q-146 5 -250.5 108t-104.5 247 q0 146 105 251.5t254 105.5q151 0 252 -104l-1 1q15 -14 0 -27l-79 -79q-14 -7 -27 0q-61 61 -145 61t-144 -61.5t-60 -147.5t60 -146.5t144 -60.5z"/>
<glyph unicode="È" horiz-adv-x="588" glyph-name="Egrave" d="M518 557h-303v-134h256q9 0 14.5 -5.5t5.5 -12.5v-108q0 -6 -5.5 -11.5t-14.5 -5.5h-256v-134h311q9 0 15.5 -5.5t6.5 -12.5v-111q0 -6 -6.5 -11.5t-15.5 -5.5h-443q-9 0 -15 5.5t-6 11.5v665q0 7 6 12.5t15 5.5h435q9 0 15 -5.5t6 -12.5v-107q0 -7 -6 -12.5t-15 -5.5z M440 829l-48 -81q-8 -9 -32 0l-169 92q-9 2 -11 10t3 15v-1l54 86q5 8 30 -2l166 -95h-2q9 -4 12 -11t-3 -14v1z"/>
<glyph unicode="É" horiz-adv-x="588" glyph-name="Eacute" d="M518 557h-303v-134h256q9 0 14.5 -5.5t5.5 -12.5v-108q0 -6 -5.5 -11.5t-14.5 -5.5h-256v-134h311q9 0 15.5 -5.5t6.5 -12.5v-111q0 -6 -6.5 -11.5t-15.5 -5.5h-443q-9 0 -15 5.5t-6 11.5v665q0 7 6 12.5t15 5.5h435q9 0 15 -5.5t6 -12.5v-107q0 -7 -6 -12.5t-15 -5.5z M235 737l-49 82q-6 6 -3.5 13.5t11.5 10.5q33 19 93 51.5t83 44.5q25 10 30 2l56 -89q5 -13 -11 -21h1l-178 -93q-26 -9 -33 -1z"/>
<glyph unicode="Ê" horiz-adv-x="588" glyph-name="Ecircumflex" d="M518 557h-303v-134h256q9 0 14.5 -5.5t5.5 -12.5v-108q0 -6 -5.5 -11.5t-14.5 -5.5h-256v-134h311q9 0 15.5 -5.5t6.5 -12.5v-111q0 -6 -6.5 -11.5t-15.5 -5.5h-443q-9 0 -15 5.5t-6 11.5v665q0 7 6 12.5t15 5.5h435q9 0 15 -5.5t6 -12.5v-107q0 -7 -6 -12.5t-15 -5.5z M172 757l-44 65v-1q-5 6 -2.5 14t11.5 12h-2l162 93q2 2 9.5 2t10.5 -2l165 -88h-2q22 -9 10 -25v1l-43 -73q-11 -11 -28 -7l-112 63q-14 -8 -49 -29.5t-54 -31.5q-18 -7 -32 7z"/>
<glyph unicode="Ë" horiz-adv-x="588" glyph-name="Edieresis" d="M518 557h-303v-134h256q9 0 14.5 -5.5t5.5 -12.5v-108q0 -6 -5.5 -11.5t-14.5 -5.5h-256v-134h311q9 0 15.5 -5.5t6.5 -12.5v-111q0 -6 -6.5 -11.5t-15.5 -5.5h-443q-9 0 -15 5.5t-6 11.5v665q0 7 6 12.5t15 5.5h435q9 0 15 -5.5t6 -12.5v-107q0 -7 -6 -12.5t-15 -5.5z M297 823q0 -32 -25.5 -56t-59.5 -24q-32 0 -57 24t-25 56t25 56t57 24q34 0 59.5 -24t25.5 -56zM505 823q0 -32 -25 -56t-58 -24q-34 0 -59 24t-25 56t25 56t59 24q33 0 58 -24t25 -56z"/>
<glyph unicode="Ì" horiz-adv-x="350" glyph-name="Igrave" d="M299 564h-53v-428h57q9 0 15 -5.5t6 -11.5v-102q0 -6 -6 -11.5t-15 -5.5h-268q-9 0 -15 5.5t-6 11.5v102q0 6 6 11.5t15 5.5h58v428h-54q-9 0 -15 5.5t-6 11.5v101q0 7 6 12.5t15 5.5h260q9 0 15 -5.5t6 -12.5v-101q0 -6 -6 -11.5t-15 -5.5zM300 829l-48 -81q-8 -9 -32 0 l-169 92q-9 2 -11 10t3 15v-1l54 86q5 8 30 -2l166 -95h-2q9 -4 12 -11t-3 -14v1z"/>
<glyph unicode="Í" horiz-adv-x="350" glyph-name="Iacute" d="M299 564h-53v-428h57q9 0 15 -5.5t6 -11.5v-102q0 -6 -6 -11.5t-15 -5.5h-268q-9 0 -15 5.5t-6 11.5v102q0 6 6 11.5t15 5.5h58v428h-54q-9 0 -15 5.5t-6 11.5v101q0 7 6 12.5t15 5.5h260q9 0 15 -5.5t6 -12.5v-101q0 -6 -6 -11.5t-15 -5.5zM86 745l-49 82 q-6 6 -3.5 13.5t11.5 10.5q33 19 93 51.5t83 44.5q25 10 30 2l56 -89q5 -13 -11 -21h1l-178 -93q-26 -9 -33 -1z"/>
<glyph unicode="Î" horiz-adv-x="350" glyph-name="Icircumflex" d="M299 564h-53v-428h57q9 0 15 -5.5t6 -11.5v-102q0 -6 -6 -11.5t-15 -5.5h-268q-9 0 -15 5.5t-6 11.5v102q0 6 6 11.5t15 5.5h58v428h-54q-9 0 -15 5.5t-6 11.5v101q0 7 6 12.5t15 5.5h260q9 0 15 -5.5t6 -12.5v-101q0 -6 -6 -11.5t-15 -5.5zM34 756l-44 65v-1 q-5 6 -2.5 14t11.5 12h-2l162 93q2 1 9.5 1t10.5 -1l165 -88h-2q22 -9 10 -25v1l-43 -73q-10 -10 -28 -7l-112 63q-14 -8 -49 -29.5t-54 -31.5q-18 -7 -32 7z"/>
<glyph unicode="Ï" horiz-adv-x="350" glyph-name="Idieresis" d="M299 564h-53v-428h57q9 0 15 -5.5t6 -11.5v-102q0 -6 -6 -11.5t-15 -5.5h-268q-9 0 -15 5.5t-6 11.5v102q0 6 6 11.5t15 5.5h58v428h-54q-9 0 -15 5.5t-6 11.5v101q0 7 6 12.5t15 5.5h260q9 0 15 -5.5t6 -12.5v-101q0 -6 -6 -11.5t-15 -5.5zM156 823q0 -32 -25.5 -56 t-59.5 -24q-32 0 -57 24t-25 56t25 56t57 24q34 0 59.5 -24t25.5 -56zM364 823q0 -32 -25 -56t-58 -24q-34 0 -59 24t-25 56t25 56t59 24q33 0 58 -24t25 -56z"/>
<glyph unicode="Ð" horiz-adv-x="662" glyph-name="Eth" d="M83 700h111q410 0 410 -350q0 -86 -26.5 -151t-67 -102t-97.5 -59.5t-108.5 -30t-110.5 -7.5h-111q-9 0 -15 5.5t-6 11.5v265h-52q-20 0 -20 17v97q0 17 20 17h52v269q0 7 6 12.5t15 5.5zM215 282v-141q37 0 65 3t62 15.5t55.5 34t36.5 61.5t15 95q0 210 -234 210v-147 h103q9 0 15.5 -5.5t6.5 -11.5v-97q0 -6 -6.5 -11.5t-15.5 -5.5h-103z"/>
<glyph unicode="Ñ" horiz-adv-x="742" glyph-name="Ntilde" d="M659 682v-665q0 -6 -6 -11.5t-15 -5.5h-112q-11 0 -17 7q-35 51 -92.5 133.5t-105.5 151t-94 133.5v-408q0 -6 -6 -11.5t-15 -5.5h-112q-9 0 -15 5.5t-6 11.5v665q0 7 6 12.5t15 5.5h113q11 0 17 -7q52 -75 148.5 -211.5t144.5 -205.5v406q0 7 6 12.5t15 5.5h110 q9 0 15 -5.5t6 -12.5zM277 749l-77 21h1q-16 3 -16 20q8 54 40 82.5t78 28.5q47 0 84 -23h2q20 -9 31 -9q8 0 15 17q8 12 30 9l72 -23h-2q24 -6 16 -23l1 1q-30 -105 -117 -105q-33 0 -85 21l-13 4q-20 9 -26 9q-2 0 -6 -15q-9 -18 -28 -15z"/>
<glyph unicode="Ò" horiz-adv-x="638" glyph-name="Ograve" d="M309 184q-111 0 -190 76t-79 185q0 108 79 185.5t190 77.5q110 0 189 -77.5t79 -185.5t-78.5 -184.5t-189.5 -76.5zM309 563q-48 0 -82 -34.5t-34 -83.5q0 -50 33.5 -83t82.5 -33q48 0 81.5 33t33.5 83q0 49 -33.5 83.5t-81.5 34.5zM547 127v-110q0 -6 -6.5 -11.5 t-15.5 -5.5h-438q-9 0 -15 5.5t-6 11.5v110q0 7 6 12.5t15 5.5h438q9 0 15.5 -5.5t6.5 -12.5zM444 823l-48 -81q-8 -9 -32 0l-169 92q-9 2 -11 10t3 15v-1l54 86q5 8 30 -2l166 -95h-2q9 -4 12 -11t-3 -14v1z"/>
<glyph unicode="Ó" horiz-adv-x="638" glyph-name="Oacute" d="M309 184q-111 0 -190 76t-79 185q0 108 79 185.5t190 77.5q110 0 189 -77.5t79 -185.5t-78.5 -184.5t-189.5 -76.5zM309 563q-48 0 -82 -34.5t-34 -83.5q0 -50 33.5 -83t82.5 -33q48 0 81.5 33t33.5 83q0 49 -33.5 83.5t-81.5 34.5zM547 127v-110q0 -6 -6.5 -11.5 t-15.5 -5.5h-438q-9 0 -15 5.5t-6 11.5v110q0 7 6 12.5t15 5.5h438q9 0 15.5 -5.5t6.5 -12.5zM230 743l-49 82q-6 6 -3.5 13.5t11.5 10.5q33 19 93 51.5t83 44.5q25 10 30 2l56 -89q5 -13 -11 -21h1l-178 -93q-26 -9 -33 -1z"/>
<glyph unicode="Ô" horiz-adv-x="638" glyph-name="Ocircumflex" d="M309 184q-111 0 -190 76t-79 185q0 108 79 185.5t190 77.5q110 0 189 -77.5t79 -185.5t-78.5 -184.5t-189.5 -76.5zM309 563q-48 0 -82 -34.5t-34 -83.5q0 -50 33.5 -83t82.5 -33q48 0 81.5 33t33.5 83q0 49 -33.5 83.5t-81.5 34.5zM547 127v-110q0 -6 -6.5 -11.5 t-15.5 -5.5h-438q-9 0 -15 5.5t-6 11.5v110q0 7 6 12.5t15 5.5h438q9 0 15.5 -5.5t6.5 -12.5zM177 751l-44 65v-1q-5 6 -2.5 14t11.5 12h-2l162 93q2 2 9.5 2t10.5 -2l165 -88h-2q23 -9 10 -25v1l-43 -73q-10 -11 -28 -7l-112 63q-14 -8 -49 -29.5t-54 -31.5q-18 -7 -32 7z "/>
<glyph unicode="Õ" horiz-adv-x="638" glyph-name="Otilde" d="M309 184q-111 0 -190 76t-79 185q0 108 79 185.5t190 77.5q110 0 189 -77.5t79 -185.5t-78.5 -184.5t-189.5 -76.5zM309 563q-48 0 -82 -34.5t-34 -83.5q0 -50 33.5 -83t82.5 -33q48 0 81.5 33t33.5 83q0 49 -33.5 83.5t-81.5 34.5zM547 127v-110q0 -6 -6.5 -11.5 t-15.5 -5.5h-438q-9 0 -15 5.5t-6 11.5v110q0 7 6 12.5t15 5.5h438q9 0 15.5 -5.5t6.5 -12.5zM223 753l-77 21h1q-16 3 -16 20q8 54 40 82.5t78 28.5q47 0 84 -23h2q20 -9 31 -9q8 0 15 17q8 12 30 9l72 -23h-2q24 -6 16 -23l1 1q-30 -105 -117 -105q-33 0 -85 21l-13 4 q-20 9 -26 9q-2 0 -6 -15q-9 -18 -28 -15z"/>
<glyph unicode="Ö" horiz-adv-x="638" glyph-name="Odieresis" d="M309 184q-111 0 -190 76t-79 185q0 108 79 185.5t190 77.5q110 0 189 -77.5t79 -185.5t-78.5 -184.5t-189.5 -76.5zM309 563q-48 0 -82 -34.5t-34 -83.5q0 -50 33.5 -83t82.5 -33q48 0 81.5 33t33.5 83q0 49 -33.5 83.5t-81.5 34.5zM547 127v-110q0 -6 -6.5 -11.5 t-15.5 -5.5h-438q-9 0 -15 5.5t-6 11.5v110q0 7 6 12.5t15 5.5h438q9 0 15.5 -5.5t6.5 -12.5zM299 818q0 -32 -25.5 -56t-59.5 -24q-32 0 -57 24t-25 56t25 56t57 24q34 0 59.5 -24t25.5 -56zM507 818q0 -32 -25 -56t-58 -24q-34 0 -59 24t-25 56t25 56t59 24q33 0 58 -24 t25 -56z"/>
<glyph unicode="×" horiz-adv-x="403" glyph-name="multiply" d="M366 255q17 -13 0 -27l-68 -67q-13 -8 -26 0l-86 86l-84 -86q-15 -9 -31 3l-64 65l1 -1q-15 14 0 27l86 85l-87 86v-1q-7 5 -6.5 13.5t6.5 13.5l68 67q13 11 27 0l86 -86l85 85q13 10 26 0l68 -67l-1 1q7 -5 7 -13.5t-7 -13.5l-85 -85z"/>
<glyph unicode="Ø" horiz-adv-x="620" glyph-name="Oslash" d="M309 184q-42 0 -76 10l-14 -21q-5 -6 -13 -6h-118q-14 0 -19.5 8.5t3.5 18.5h-1l45 68q-76 76 -76 183q0 108 79 185.5t190 77.5q50 0 99 -19l17 25q6 10 20 10h116q13 0 18.5 -9t-2.5 -20l-60 -86q60 -73 60 -164q0 -108 -78.5 -184.5t-189.5 -76.5zM547 117v-110 q0 -6 -6.5 -11.5t-15.5 -5.5h-438q-9 0 -15 5.5t-6 11.5v110q0 7 6 12.5t15 5.5h438q9 0 15.5 -5.5t6.5 -12.5zM309 563q-48 0 -82 -34.5t-34 -83.5q0 -50 33.5 -83t82.5 -33q48 0 81.5 33t33.5 83q0 49 -33.5 83.5t-81.5 34.5z"/>
<glyph unicode="Ù" horiz-adv-x="740" glyph-name="Ugrave" d="M84 700h553q9 0 15 -5.5t6 -12.5v-397q0 -74 -35 -144q-37 -73 -104.5 -112t-157.5 -39q-87 0 -156 40.5t-107 111.5q-35 71 -35 143v397q0 7 6 12.5t15 5.5zM484 205q22 41 22 81v278h-290v-279q0 -39 21 -80q39 -69 124 -69q86 0 123 69zM495 825l-48 -81q-8 -9 -32 0 l-169 92q-9 2 -11 10t3 15v-1l54 86q5 8 30 -2l166 -95h-2q9 -4 12 -11t-3 -14v1z"/>
<glyph unicode="Ú" horiz-adv-x="740" glyph-name="Uacute" d="M84 700h553q9 0 15 -5.5t6 -12.5v-397q0 -74 -35 -144q-37 -73 -104.5 -112t-157.5 -39q-87 0 -156 40.5t-107 111.5q-35 71 -35 143v397q0 7 6 12.5t15 5.5zM484 205q22 41 22 81v278h-290v-279q0 -39 21 -80q39 -69 124 -69q86 0 123 69zM281 747l-49 82 q-6 6 -3.5 13.5t11.5 10.5q33 19 93 51.5t83 44.5q25 10 30 2l56 -89q5 -13 -11 -21h1l-178 -93q-26 -9 -33 -1z"/>
<glyph unicode="Û" horiz-adv-x="740" glyph-name="Ucircumflex" d="M84 700h553q9 0 15 -5.5t6 -12.5v-397q0 -74 -35 -144q-37 -73 -104.5 -112t-157.5 -39q-87 0 -156 40.5t-107 111.5q-35 71 -35 143v397q0 7 6 12.5t15 5.5zM484 205q22 41 22 81v278h-290v-279q0 -39 21 -80q39 -69 124 -69q86 0 123 69zM228 759l-44 65v-1 q-5 6 -2.5 14t11.5 12h-2l162 93q2 2 9.5 2t10.5 -2l165 -88h-2q22 -9 10 -25v1l-43 -73q-11 -11 -28 -7l-112 63q-14 -8 -49 -29.5t-54 -31.5q-18 -7 -32 7z"/>
<glyph unicode="Ü" horiz-adv-x="740" glyph-name="Udieresis" d="M84 700h553q9 0 15 -5.5t6 -12.5v-397q0 -74 -35 -144q-37 -73 -104.5 -112t-157.5 -39q-87 0 -156 40.5t-107 111.5q-35 71 -35 143v397q0 7 6 12.5t15 5.5zM484 205q22 41 22 81v278h-290v-279q0 -39 21 -80q39 -69 124 -69q86 0 123 69zM350 828q0 -32 -25.5 -56 t-59.5 -24q-32 0 -57 24t-25 56t25 56t57 24q34 0 59.5 -24t25.5 -56zM558 828q0 -32 -25 -56t-58 -24q-34 0 -59 24t-25 56t25 56t59 24q33 0 58 -24t25 -56z"/>
<glyph unicode="Ý" horiz-adv-x="645" glyph-name="Yacute" d="M483 700h136q13 0 18.5 -9.5t-2.5 -18.5h1l-246 -345v-310q0 -6 -6 -11.5t-15 -5.5h-111q-9 0 -15 5.5t-6 11.5v310q-22 31 -67.5 94.5t-67.5 94.5q-18 25 -55.5 78t-55.5 78h1q-8 9 -2.5 18.5t18.5 9.5h135q12 0 18 -7q29 -42 81.5 -113.5t71.5 -98.5l152 212q7 7 17 7z M234 741l-49 82q-6 6 -3.5 13.5t11.5 10.5q33 19 93 51.5t83 44.5q25 10 30 2l56 -89q5 -13 -11 -21h1l-178 -93q-26 -9 -33 -1z"/>
<glyph unicode="Þ" horiz-adv-x="583" glyph-name="Thorn" d="M305 565q7 0 16.5 -0.5t35 -4.5t48 -11.5t50 -23t46.5 -37t32.5 -56.5t13.5 -78q0 -58 -22.5 -101t-51.5 -63t-68.5 -32t-59.5 -13.5t-40 -1.5h-90v-126q0 -6 -6 -11.5t-15 -5.5h-111q-9 0 -15 5.5t-6 11.5v253q0 7 6 12.5t15 5.5h71q-42 64 -92 146v249q0 7 6 12.5 t15 5.5h111q9 0 15 -5.5t6 -12.5v-118h90zM305 419h-67l82 -129q29 2 51.5 17.5t22.5 46.5q0 26 -18 42t-35.5 19.5t-35.5 3.5z"/>
<glyph unicode="ß" horiz-adv-x="592" glyph-name="germandbls" d="M220 552l-1 -535q0 -6 -5.5 -11.5t-14.5 -5.5h-115q-9 0 -14.5 5.5t-5.5 11.5v658q0 7 5.5 12t14.5 5h217q5 0 13.5 -0.5t33.5 -4.5t47.5 -11t50 -22.5t47.5 -36.5t33.5 -55.5t13.5 -76.5q0 -55 -23.5 -91.5t-55.5 -53.5q39 -18 60 -51.5t23 -57.5l1 -24 q0 -42 -13.5 -76.5t-35 -55.5t-47.5 -36.5t-52 -22.5t-47.5 -11t-35.5 -5h-13q-9 0 -14.5 5t-5.5 12v108q0 17 20 17q4 0 10.5 0.5t22.5 4t28.5 9.5t23 19.5t10.5 31.5q0 28 -24 44t-48 18l-23 2q-9 0 -14.5 5t-5.5 12v109q0 17 20 17q89 0 89 71q0 34 -28 50.5t-62 16.5 h-80z"/>
<glyph unicode="à" d="M400 11l-27 69h-200l-25 -69v1q-3 -12 -21 -12h-119q-12 0 -17.5 7.5t-1.5 16.5q43 110 132.5 340t132.5 340q5 11 19.5 11t19.5 -11l265 -680q4 -9 -1.5 -16.5t-16.5 -7.5h-121q-16 0 -19 12v-1zM249 305l-36 -104h120l-35 104q-17 56 -24 97q-10 -51 -25 -97zM408 812 l-48 -81q-8 -9 -32 0l-169 92q-9 2 -11 10t3 15v-1l54 86q5 8 30 -2l166 -95h-2q9 -4 12 -11t-3 -14v1z" glyph-name="agrave"/>
<glyph unicode="á" d="M400 11l-27 69h-200l-25 -69v1q-3 -12 -21 -12h-119q-12 0 -17.5 7.5t-1.5 16.5q43 110 132.5 340t132.5 340q5 11 19.5 11t19.5 -11l265 -680q4 -9 -1.5 -16.5t-16.5 -7.5h-121q-16 0 -19 12v-1zM249 305l-36 -104h120l-35 104q-17 56 -24 97q-10 -51 -25 -97zM191 742 l-49 82q-6 6 -3.5 13.5t11.5 10.5q33 19 93 51.5t83 44.5q25 10 30 2l56 -89q5 -13 -11 -21h1l-178 -93q-26 -9 -33 -1z" glyph-name="aacute"/>
<glyph unicode="â" d="M400 11l-27 69h-200l-25 -69v1q-3 -12 -21 -12h-119q-12 0 -17.5 7.5t-1.5 16.5q43 110 132.5 340t132.5 340q5 11 19.5 11t19.5 -11l265 -680q4 -9 -1.5 -16.5t-16.5 -7.5h-121q-16 0 -19 12v-1zM249 305l-36 -104h120l-35 104q-17 56 -24 97q-10 -51 -25 -97zM138 737 l-44 65v-1q-5 6 -2.5 14t11.5 12h-2l162 93q2 2 9.5 2t10.5 -2l165 -88h-2q22 -9 10 -25v1l-43 -73q-11 -11 -28 -7l-112 63q-14 -8 -49 -29.5t-54 -31.5q-18 -7 -32 7z" glyph-name="acircumflex"/>
<glyph unicode="ã" d="M400 11l-27 69h-200l-25 -69v1q-3 -12 -21 -12h-119q-12 0 -17.5 7.5t-1.5 16.5q43 110 132.5 340t132.5 340q5 11 19.5 11t19.5 -11l265 -680q4 -9 -1.5 -16.5t-16.5 -7.5h-121q-16 0 -19 12v-1zM249 305l-36 -104h120l-35 104q-17 56 -24 97q-10 -51 -25 -97zM183 743 l-77 21h1q-16 3 -16 20q8 54 40 82.5t78 28.5q47 0 84 -23h2q20 -9 31 -9q8 0 15 17q8 12 30 9l72 -23h-2q24 -6 16 -23l1 1q-30 -105 -117 -105q-33 0 -85 21l-13 4q-20 9 -26 9q-2 0 -6 -15q-9 -18 -28 -15z" glyph-name="atilde"/>
<glyph unicode="ä" d="M400 11l-27 69h-200l-25 -69v1q-3 -12 -21 -12h-119q-12 0 -17.5 7.5t-1.5 16.5q43 110 132.5 340t132.5 340q5 11 19.5 11t19.5 -11l265 -680q4 -9 -1.5 -16.5t-16.5 -7.5h-121q-16 0 -19 12v-1zM249 305l-36 -104h120l-35 104q-17 56 -24 97q-10 -51 -25 -97zM259 820 q0 -32 -25.5 -56t-59.5 -24q-32 0 -57 24t-25 56t25 56t57 24q34 0 59.5 -24t25.5 -56zM467 820q0 -32 -25 -56t-58 -24q-34 0 -59 24t-25 56t25 56t59 24q33 0 58 -24t25 -56z" glyph-name="adieresis"/>
<glyph unicode="å" horiz-adv-x="570" glyph-name="aring" d="M432 766q0 -54 -28.5 -88.5t-73.5 -46.5l237 -607q4 -9 -1.5 -16.5t-16.5 -7.5h-121q-16 0 -19 12v-1l-27 69h-200l-25 -69v1q-3 -12 -21 -12h-119q-12 0 -17.5 7.5t-1.5 16.5l237 608q-45 13 -73.5 47.5t-28.5 86.5q0 66 46.5 103t103 37.5t103 -37t46.5 -103.5z M258 305l-36 -104h120l-35 104q-17 56 -24 97q-10 -51 -25 -97zM329 766q0 29 -23 41t-46 0.5t-23 -41.5t23 -42.5t46 0t23 42.5z"/>
<glyph unicode="æ" horiz-adv-x="791" glyph-name="ae" d="M715 560h-217v-137h172q9 0 15.5 -5.5t6.5 -12.5v-103q0 -6 -6.5 -11.5t-15.5 -5.5h-172v-147h228q9 0 15 -5.5t6 -11.5v-104q0 -6 -6 -11.5t-15 -5.5h-349q-9 0 -15 5.5t-6 11.5v70h-148q-8 -14 -18.5 -40.5t-15.5 -37.5v1q-6 -10 -20 -10h-128q-13 0 -19 8.5t1 18.5 l-1 -1l306 660q6 13 22 14h380q9 0 15 -5.5t6 -12.5v-105q0 -6 -6 -11.5t-15 -5.5zM266 218h90q0 15 1 44.5t3 85t4 107.5z"/>
<glyph unicode="ç" horiz-adv-x="694" glyph-name="ccedilla" d="M396 145q82 0 143 61q15 9 31 0l78 -82l-1 1q16 -12 0 -26q-59 -61 -127 -86q45 -30 45 -88q0 -73 -52 -116t-133 -43t-132 46t-51 121q0 16 22 16h92q21 0 21 -16q0 -20 13.5 -31t34.5 -11q20 0 34.5 16.5t14.5 38.5q0 19 -11 33t-26 18q-146 5 -250.5 108t-104.5 247 q0 146 105 251.5t254 105.5q151 0 252 -104l-1 1q15 -14 0 -27l-79 -79q-14 -7 -27 0q-61 61 -145 61t-144 -61.5t-60 -147.5t60 -146.5t144 -60.5z"/>
<glyph unicode="è" horiz-adv-x="588" glyph-name="egrave" d="M518 557h-303v-134h256q9 0 14.5 -5.5t5.5 -12.5v-108q0 -6 -5.5 -11.5t-14.5 -5.5h-256v-134h311q9 0 15.5 -5.5t6.5 -12.5v-111q0 -6 -6.5 -11.5t-15.5 -5.5h-443q-9 0 -15 5.5t-6 11.5v665q0 7 6 12.5t15 5.5h435q9 0 15 -5.5t6 -12.5v-107q0 -7 -6 -12.5t-15 -5.5z M439 821l-48 -81q-8 -9 -32 0l-169 92q-9 2 -11 10t3 15v-1l54 86q5 8 30 -2l166 -95h-2q9 -4 12 -11t-3 -14v1z"/>
<glyph unicode="é" horiz-adv-x="588" glyph-name="eacute" d="M518 557h-303v-134h256q9 0 14.5 -5.5t5.5 -12.5v-108q0 -6 -5.5 -11.5t-14.5 -5.5h-256v-134h311q9 0 15.5 -5.5t6.5 -12.5v-111q0 -6 -6.5 -11.5t-15.5 -5.5h-443q-9 0 -15 5.5t-6 11.5v665q0 7 6 12.5t15 5.5h435q9 0 15 -5.5t6 -12.5v-107q0 -7 -6 -12.5t-15 -5.5z M235 747l-49 82q-6 6 -3.5 13.5t11.5 10.5q33 19 93 51.5t83 44.5q25 10 30 2l56 -89q5 -13 -11 -21h1l-178 -93q-26 -9 -33 -1z"/>
<glyph unicode="ê" horiz-adv-x="588" glyph-name="ecircumflex" d="M518 557h-303v-134h256q9 0 14.5 -5.5t5.5 -12.5v-108q0 -6 -5.5 -11.5t-14.5 -5.5h-256v-134h311q9 0 15.5 -5.5t6.5 -12.5v-111q0 -6 -6.5 -11.5t-15.5 -5.5h-443q-9 0 -15 5.5t-6 11.5v665q0 7 6 12.5t15 5.5h435q9 0 15 -5.5t6 -12.5v-107q0 -7 -6 -12.5t-15 -5.5z M181 760l-44 65v-1q-5 6 -2.5 14t11.5 12h-2l162 93q2 1 9.5 1t10.5 -1l165 -88h-2q23 -9 10 -25v1l-43 -73q-10 -10 -28 -7l-112 63q-14 -8 -49 -29.5t-54 -31.5q-18 -7 -32 7z"/>
<glyph unicode="ë" horiz-adv-x="588" glyph-name="edieresis" d="M518 557h-303v-134h256q9 0 14.5 -5.5t5.5 -12.5v-108q0 -6 -5.5 -11.5t-14.5 -5.5h-256v-134h311q9 0 15.5 -5.5t6.5 -12.5v-111q0 -6 -6.5 -11.5t-15.5 -5.5h-443q-9 0 -15 5.5t-6 11.5v665q0 7 6 12.5t15 5.5h435q9 0 15 -5.5t6 -12.5v-107q0 -7 -6 -12.5t-15 -5.5z M291 827q0 -32 -25.5 -56t-59.5 -24q-32 0 -57 24t-25 56t25 56t57 24q34 0 59.5 -24t25.5 -56zM499 827q0 -32 -25 -56t-58 -24q-34 0 -59 24t-25 56t25 56t59 24q33 0 58 -24t25 -56z"/>
<glyph unicode="ì" horiz-adv-x="280" glyph-name="igrave" d="M60 17v658q0 7 6 12t15 5h109q21 0 21 -17v-658q0 -6 -6 -11.5t-15 -5.5h-109q-9 0 -15 5.5t-6 11.5zM265 829l-48 -81q-8 -9 -32 0l-169 92q-9 2 -11 10t3 15v-1l54 86q5 8 30 -2l166 -95h-2q9 -4 12 -11t-3 -14v1z"/>
<glyph unicode="í" horiz-adv-x="280" glyph-name="iacute" d="M60 17v658q0 7 6 12t15 5h109q21 0 21 -17v-658q0 -6 -6 -11.5t-15 -5.5h-109q-9 0 -15 5.5t-6 11.5zM52 744l-49 82q-6 6 -3.5 13.5t11.5 10.5q33 19 93 51.5t83 44.5q25 10 30 2l56 -89q5 -13 -11 -21h1l-178 -93q-26 -9 -33 -1z"/>
<glyph unicode="î" horiz-adv-x="280" glyph-name="icircumflex" d="M60 17v658q0 7 6 12t15 5h109q21 0 21 -17v-658q0 -6 -6 -11.5t-15 -5.5h-109q-9 0 -15 5.5t-6 11.5zM-1 745l-44 65v-1q-5 6 -2.5 14t11.5 12h-2l162 93q2 2 9.5 2t10.5 -2l165 -88h-2q22 -9 10 -25v1l-43 -73q-10 -11 -28 -7l-112 63q-14 -8 -49 -29.5t-54 -31.5 q-18 -7 -32 7z"/>
<glyph unicode="ï" horiz-adv-x="280" glyph-name="idieresis" d="M60 17v658q0 7 6 12t15 5h109q21 0 21 -17v-658q0 -6 -6 -11.5t-15 -5.5h-109q-9 0 -15 5.5t-6 11.5zM120 819q0 -32 -25.5 -56t-59.5 -24q-32 0 -57 24t-25 56t25 56t57 24q34 0 59.5 -24t25.5 -56zM328 819q0 -32 -25 -56t-58 -24q-34 0 -59 24t-25 56t25 56t59 24 q33 0 58 -24t25 -56z"/>
<glyph unicode="ð" horiz-adv-x="662" glyph-name="eth" d="M84 687h109q402 0 402 -344q0 -84 -26 -148t-65.5 -100t-96 -58.5t-107 -29.5t-107.5 -7h-109q-21 0 -21 17v265h-50q-9 0 -15 5t-6 12v88q0 7 6 12.5t15 5.5h50v264q0 18 21 18zM213 282v-144h14q25 0 49 3.5t55.5 16t55 33.5t40 60.5t16.5 91.5t-16 91.5t-38 60.5 t-53 34t-55 16.5t-49 3.5h-19v-144h102q9 0 15 -5.5t6 -12.5v-88q0 -7 -6 -12t-15 -5h-102zM194 116l-7 8q-7 5 -2 11t13 4h4q11 0 11 -9v-7q0 -7 -6.5 -9.5t-12.5 2.5z"/>
<glyph unicode="ñ" horiz-adv-x="742" glyph-name="ntilde" d="M659 682v-665q0 -6 -6 -11.5t-15 -5.5h-112q-11 0 -17 7q-35 51 -92.5 133.5t-105.5 151t-94 133.5v-408q0 -6 -6 -11.5t-15 -5.5h-112q-9 0 -15 5.5t-6 11.5v665q0 7 6 12.5t15 5.5h113q11 0 17 -7q52 -75 148.5 -211.5t144.5 -205.5v406q0 7 6 12.5t15 5.5h110 q9 0 15 -5.5t6 -12.5zM277 744l-77 21h1q-16 3 -16 20q8 54 40 82.5t78 28.5q47 0 84 -23h2q20 -9 31 -9q8 0 15 17q8 12 30 9l72 -23h-2q24 -6 16 -23l1 1q-30 -105 -117 -105q-33 0 -85 21l-13 4q-20 9 -26 9q-2 0 -6 -15q-9 -18 -28 -15z"/>
<glyph unicode="ò" horiz-adv-x="797" glyph-name="ograve" d="M385 702q82 0 149 -30.5t109 -81t64 -113t22 -130.5t-22 -130.5t-64 -113.5t-109 -81.5t-149 -30.5q-83 0 -150.5 30.5t-109 81.5t-63.5 113.5t-22 130.5q0 92 37 171t117.5 131.5t190.5 52.5zM385 132q89 0 140 63t51 150t-51 151.5t-140 64.5q-90 0 -140.5 -64 t-50.5 -152q0 -87 50.5 -150t140.5 -63zM522 829l-48 -81q-8 -9 -32 0l-169 92q-9 2 -11 10t3 15v-1l54 86q5 8 30 -2l166 -95h-2q9 -4 12 -11t-3 -14v1z"/>
<glyph unicode="ó" horiz-adv-x="797" glyph-name="oacute" d="M385 702q82 0 149 -30.5t109 -81t64 -113t22 -130.5t-22 -130.5t-64 -113.5t-109 -81.5t-149 -30.5q-83 0 -150.5 30.5t-109 81.5t-63.5 113.5t-22 130.5q0 92 37 171t117.5 131.5t190.5 52.5zM385 132q89 0 140 63t51 150t-51 151.5t-140 64.5q-90 0 -140.5 -64 t-50.5 -152q0 -87 50.5 -150t140.5 -63zM317 745l-49 82q-6 6 -3.5 13.5t11.5 10.5q33 19 93 51.5t83 44.5q25 10 30 2l56 -89q5 -13 -11 -21h1l-178 -93q-26 -9 -33 -1z"/>
<glyph unicode="ô" horiz-adv-x="797" glyph-name="ocircumflex" d="M385 702q82 0 149 -30.5t109 -81t64 -113t22 -130.5t-22 -130.5t-64 -113.5t-109 -81.5t-149 -30.5q-83 0 -150.5 30.5t-109 81.5t-63.5 113.5t-22 130.5q0 92 37 171t117.5 131.5t190.5 52.5zM385 132q89 0 140 63t51 150t-51 151.5t-140 64.5q-90 0 -140.5 -64 t-50.5 -152q0 -87 50.5 -150t140.5 -63zM257 749l-44 65v-1q-5 6 -2.5 14t11.5 12h-2l162 93q2 2 9.5 2t10.5 -2l165 -88h-2q23 -9 10 -25v1l-43 -73q-10 -11 -28 -7l-112 63q-14 -8 -49 -29.5t-54 -31.5q-18 -7 -32 7z"/>
<glyph unicode="õ" horiz-adv-x="797" glyph-name="otilde" d="M385 702q82 0 149 -30.5t109 -81t64 -113t22 -130.5t-22 -130.5t-64 -113.5t-109 -81.5t-149 -30.5q-83 0 -150.5 30.5t-109 81.5t-63.5 113.5t-22 130.5q0 92 37 171t117.5 131.5t190.5 52.5zM385 132q89 0 140 63t51 150t-51 151.5t-140 64.5q-90 0 -140.5 -64 t-50.5 -152q0 -87 50.5 -150t140.5 -63zM299 750l-77 21h1q-16 3 -16 20q8 54 40 82.5t78 28.5q47 0 84 -23h2q20 -9 31 -9q8 0 15 17q8 12 30 9l72 -23h-2q24 -6 16 -23l1 1q-30 -105 -117 -105q-33 0 -85 21l-13 4q-20 9 -26 9q-2 0 -6 -15q-9 -18 -28 -15z"/>
<glyph unicode="ö" horiz-adv-x="797" glyph-name="odieresis" d="M385 702q82 0 149 -30.5t109 -81t64 -113t22 -130.5t-22 -130.5t-64 -113.5t-109 -81.5t-149 -30.5q-83 0 -150.5 30.5t-109 81.5t-63.5 113.5t-22 130.5q0 92 37 171t117.5 131.5t190.5 52.5zM385 132q89 0 140 63t51 150t-51 151.5t-140 64.5q-90 0 -140.5 -64 t-50.5 -152q0 -87 50.5 -150t140.5 -63zM378 812q0 -32 -25.5 -56t-59.5 -24q-32 0 -57 24t-25 56t25 56t57 24q34 0 59.5 -24t25.5 -56zM586 812q0 -32 -25 -56t-58 -24q-34 0 -59 24t-25 56t25 56t59 24q33 0 58 -24t25 -56z"/>
<glyph unicode="÷" horiz-adv-x="490" glyph-name="divide" d="M457 290v133h-427v-133h427zM244 262q36 0 61.5 -24.5t25.5 -58.5t-25.5 -58.5t-61.5 -24.5t-61.5 24.5t-25.5 58.5t25.5 58.5t61.5 24.5zM244 620q36 0 61.5 -24.5t25.5 -57.5q0 -35 -25 -59.5t-62 -24.5t-62 24.5t-25 59.5q0 33 25.5 57.5t61.5 24.5z"/>
<glyph unicode="ø" horiz-adv-x="780" glyph-name="oslash" d="M385 702q55 0 108 -15l30 51q5 9 19 9h111q12 0 17.5 -8t0.5 -18l-56 -103q56 -50 85 -121.5t29 -149.5q0 -68 -22 -130.5t-64 -113.5t-109 -81.5t-149 -30.5q-63 0 -116 17l-33 -59q-4 -10 -19 -10h-108q-13 0 -19 8.5t1 18.5l-1 -1q11 20 36 62.5t27 46.5 q-56 50 -84.5 122t-28.5 151q0 92 37 171t117.5 131.5t190.5 52.5zM385 132q89 0 140 63t51 150q0 84 -46 145l-196 -352q24 -6 51 -6zM194 345q0 -81 41 -138l194 349q-23 5 -44 5q-90 0 -140.5 -64t-50.5 -152z"/>
<glyph unicode="ù" horiz-adv-x="683" glyph-name="ugrave" d="M330 -10q-113 0 -189.5 65t-76.5 171v443q0 7 6 12.5t15 5.5h109q9 0 15 -5.5t6 -12.5v-441q7 -43 39.5 -68.5t75.5 -25.5q46 0 80 24t34 68v443q0 7 6 12.5t15 5.5h110q8 0 14 -5.5t6 -12.5v-443q0 -109 -74.5 -172.5t-190.5 -63.5zM452 799l-48 -81q-8 -9 -32 0 l-169 92q-9 2 -11 10t3 15v-1l54 86q5 8 30 -2l166 -95h-2q9 -4 12 -11t-3 -14v1z"/>
<glyph unicode="ú" horiz-adv-x="683" glyph-name="uacute" d="M330 -10q-113 0 -189.5 65t-76.5 171v443q0 7 6 12.5t15 5.5h109q9 0 15 -5.5t6 -12.5v-441q7 -43 39.5 -68.5t75.5 -25.5q46 0 80 24t34 68v443q0 7 6 12.5t15 5.5h110q8 0 14 -5.5t6 -12.5v-443q0 -109 -74.5 -172.5t-190.5 -63.5zM261 714l-49 82q-6 6 -3.5 13.5 t11.5 10.5q33 19 93 51.5t83 44.5q25 10 30 2l56 -89q5 -13 -11 -21h1l-178 -93q-26 -9 -33 -1z"/>
<glyph unicode="û" horiz-adv-x="683" glyph-name="ucircumflex" d="M330 -10q-113 0 -189.5 65t-76.5 171v443q0 7 6 12.5t15 5.5h109q9 0 15 -5.5t6 -12.5v-441q7 -43 39.5 -68.5t75.5 -25.5q46 0 80 24t34 68v443q0 7 6 12.5t15 5.5h110q8 0 14 -5.5t6 -12.5v-443q0 -109 -74.5 -172.5t-190.5 -63.5zM200 727l-44 65v-1q-5 6 -2.5 14 t11.5 12h-2l162 93q2 2 9.5 2t10.5 -2l165 -88h-2q22 -9 10 -25v1l-43 -73q-11 -11 -28 -7l-112 63q-14 -8 -49 -29.5t-54 -31.5q-18 -7 -32 7z"/>
<glyph unicode="ü" horiz-adv-x="683" glyph-name="udieresis" d="M330 -10q-113 0 -189.5 65t-76.5 171v443q0 7 6 12.5t15 5.5h109q9 0 15 -5.5t6 -12.5v-441q7 -43 39.5 -68.5t75.5 -25.5q46 0 80 24t34 68v443q0 7 6 12.5t15 5.5h110q8 0 14 -5.5t6 -12.5v-443q0 -109 -74.5 -172.5t-190.5 -63.5zM321 802q0 -32 -25.5 -56t-59.5 -24 q-32 0 -57 24t-25 56t25 56t57 24q34 0 59.5 -24t25.5 -56zM529 802q0 -32 -25 -56t-58 -24q-34 0 -59 24t-25 56t25 56t59 24q33 0 58 -24t25 -56z"/>
<glyph unicode="ý" horiz-adv-x="645" glyph-name="yacute" d="M476 692h134q14 0 19 -9t-3 -19h1l-241 -343v-304q0 -6 -6 -11.5t-15 -5.5h-109q-9 0 -15 5.5t-6 11.5v304l-84 119l-158 224h1q-8 10 -2.5 19t19.5 9h133q11 0 17 -6q29 -43 83 -119t67 -95l149 214q10 6 16 6zM238 722l-49 82q-6 6 -3.5 13.5t11.5 10.5q33 19 93 51.5 t83 44.5q25 10 30 2l56 -89q5 -13 -11 -21h1l-178 -93q-26 -9 -33 -1z"/>
<glyph unicode="þ" horiz-adv-x="580" glyph-name="thorn" d="M302 560q5 0 13.5 -0.5t33.5 -4.5t47.5 -11t50 -23t47.5 -37t33.5 -55.5t13.5 -76.5q0 -43 -13 -77.5t-34.5 -55.5t-46.5 -37t-50.5 -23t-47 -11t-34.5 -4l-13 -1h-88v-128q0 -17 -21 -17h-109q-9 0 -14.5 5.5t-5.5 11.5v654q0 7 5.5 12.5t14.5 5.5h109q21 0 21 -18v-109 h88zM302 287q4 0 10 0.5t21 4t27 9.5t21.5 19.5t9.5 31.5q0 28 -22.5 44t-44.5 18l-22 2h-88v-129h88z"/>
</font>
</defs>
</svg>
